<svg id="Layer_1" data-name="Layer 1" xmlns="http://www.w3.org/2000/svg" viewBox="0 0 381.11 505.6"><title>consumer-brands-and-retailers</title><defs><style>.cls-1{fill:#fff;}</style></defs><path class="cls-1" d="M102.8,124C116,89.64,126.26,56,141.55,24.77,156.36-5.47,185.41-8.77,205.11,19c17.15,24.17,28,53.37,38.46,81.53,6.08,16.38,9.57,29,31.09,30.71,8.24.66,22,16.14,21.8,24.58-1.26,51.34,17.79,97.82,31.72,145.34C343,351.83,361,401.58,377.5,451.78c2.76,8.4,7.9,17.38-3.3,24.26-1.47.9-1.93,4.11-2.11,6.31-2.08,24.65-2,23.6-26.51,23-87.58-2-175.18-3.23-262.77-4.52-18.73-.28-37.47.49-56.21.67-19.87.19-30.59-20-25.22-39.37,9.54-34.49,16.84-69.69,23.45-104.89,12.44-66.24,24-132.64,35.34-199.08C66.57,120.64,66,120.54,102.8,124ZM357.56,473.71c-10.93-28.38-20.79-50-27.63-72.5q-31-102-59.73-204.59c-3.74-13.27-9.41-21.62-23.51-23.14-43.43-4.67-86.83-9.57-130.28-14.11-13.14-1.38-15.29,6.65-13.56,17.4,3.38,21,6.89,41.93,10,62.95C124,316.37,137.6,392.21,179,459.87c5.76,9.43,11.64,13.8,23,13.58,30.4-.58,60.83.13,91.25.24C314.14,473.77,335.05,473.71,357.56,473.71Zm-208.89.07c-15-39.24-30.42-73.49-41.14-109.13-10.61-35.31-16.5-72-24.46-108.13l-4.71-.27C65.65,323,52.74,389.77,40.8,456.68c-.62,3.48,6.78,11.84,10.9,12.16C81.93,471.22,112.28,472.13,148.67,473.78Zm79.23-339.4c-11-30.75-20-58.86-31.16-86.1-5.52-13.48-18.24-14.2-24.53-1-10.3,21.7-17.78,44.82-25.14,67.75-1.14,3.57,4.21,13.16,7.31,13.53C178.14,131.38,202.08,132.56,227.9,134.38Z"/></svg>
