<svg id="Layer_1" data-name="Layer 1" xmlns="http://www.w3.org/2000/svg" viewBox="0 0 448.7 475.99"><title>engineering-and-automotive</title><defs><style>.cls-1{fill:#fff;}</style></defs><path class="cls-1" d="M447.4,240.18a470.16,470.16,0,0,0-34.88-91.33c-16.13-31.4-45.9-41.36-80.59-35.52-6.27,1.06-16.36-4-20.24-9.45-4.72-6.61-8.3-17.69-6.06-24.87,5.2-16.65,1.56-41.49-12.08-50.27C259,6.5,222-4.72,180.09,1.88c-46.86,7.39-55,16.81-48.16,65-22.72,7-40.77,28.55-68,14.69-3.71-1.89-12.8,1.83-16.53,5.7C11.1,124.93-5.84,170.06,1.8,222.13,5,244.07,14.71,263.34,39,272.65c22.3,8.54,25.48,44.6,7,59.73-5,4.07-9.79,8.32-14.88,12.22-22,16.91-23.55,31.64-4.95,52.9,31.16,35.64,62.44,69.21,115.45,72.59,18.4,1.18,24.12-2.61,28.83-17.82,2.56-8.28,6.41-18.55,13-22.71,12.94-8.19,57.94,9.59,63.62,24s15.8,20.28,30.88,22c29.85,3.38,51.73-11.85,73.78-28.2,20.64-15.3,27.41-38.56,38.12-60.11,7-14.06,7-24.35-.28-37.63-4.11-7.53-7.41-23.06-3.87-25.86,12.73-10,14.76-35,39.53-29.6,5.12,1.12,15.91-2.89,16.68-6.23C445.46,272.22,451.32,254.64,447.4,240.18Zm-77.18,21.41c-7.08,15-25,24.51-35.9,38.26-18.38,23.27-15.74,42.51,3.89,64.49,4.68,5.23,7.75,15.75,5.91,22.24-5.74,20.19-37,43.36-60.91,46.86-1.43-5.7-1.11-13.29-4.75-17.15-9.16-9.72-19-22.89-30.57-25.41-25.41-5.53-52.3-3.88-78.15-7.94-20.31-3.19-29.8,2.62-30.43,23.25-.19,6.17-2.19,12.28-3.63,19.82-34-1.72-56.69-18.43-76.3-45.09C69.9,372.31,79,364.5,88.48,357.18c16.13-12.44,21.66-25.09,10.71-45.78-8.59-16.23-11.83-36-14.13-54.61C82.77,238.38,74.15,227.05,57,224.15c-19.21-3.23-22.59-14.48-19.54-30.59,4.51-23.82,10.28-47.15,31.25-67.15,18.53,26.32,37.43,19.72,57.61,2.44,6.54-5.6,17-6.5,25.68-9.7q46.58-17.24,19.51-58c-3-4.53-5.84-9.17-8.81-13.85C195.73,28.64,242.45,34.44,267,60.11c-3.09,4.89-9,10-9.17,15.35-.28,11.87-.89,25.61,4.52,35.3,8.4,15,22.18,27,32.82,40.87,16.73,21.88,24,23.6,47.73,9.28,17.46-10.53,34.66-9.39,44.1,7.84,11.65,21.28,18.74,45.06,30.21,73.81C388.92,232.84,379.3,242.33,370.22,261.59Z"/><path class="cls-1" d="M220.05,181.67c-32,.15-61.36,23.45-63.05,50-1.71,26.7,29.4,63.86,54.46,65.07C237.27,298,262.59,268,263.8,234.81,264.59,213,238.72,181.59,220.05,181.67Z"/></svg>
