<svg id="Layer_1" data-name="Layer 1" xmlns="http://www.w3.org/2000/svg" viewBox="0 0 551.65 469.65"><defs><style>.cls-1{fill:#ff8d00;}</style></defs><title>event</title><path class="cls-1" d="M367.36,59c1.49-2.31,3.41-4.46,4.39-7,3.26-8.33,6.56-16.69,5.14-26-.21-1.4.87-3,1.53-4.51,1.7-3.78,3.5-7.51,5.82-12.46,2.84,0,7-.9,10.6.21,5.58,1.74,9.44.16,13.58-3.34C421-4.72,435-.64,440,15.09c2.06,6.43,3.55,13,5.5,20.35,8-6.06,16.06-5,25.12-1.83,5.92,2.07,13.1.88,19.69.59,8.6-.39,17.18-1.35,25.77-2A70.88,70.88,0,0,0,524,31.5c12.53-2.47,23.83,5.31,25.65,18a87.54,87.54,0,0,1,.67,9.94c.49,16.93,1.14,33.86,1.29,50.8.1,11.58-.23,23.18-.88,34.74-1.44,25.52-3.28,51-4.81,76.52-.94,15.58-1.68,31.17-2.36,46.76-.95,21.59-1.87,43.18-2.61,64.78-.61,17.94-2,35.95-1.08,53.82.84,16,.32,32.33,5.14,48.12,2.06,6.74.48,13.86-4.12,19.85-10.88,2.13-17.4-1-22.36-10.77a14.15,14.15,0,0,0-3.33-4.74c-2.87-2.28-2.77-4.45-1.81-7.82,1.13-4,2-8.76.85-12.53-3.83-12.41-1.95-25-2.17-37.46-.08-4.44-.17-8.53-3.63-12.59-2.06,1.55-4.69,2.51-5.43,4.26-3.73,8.8-11.66,12.73-19.38,16.17-8.12,3.62-14.63,9-21.32,14.46-6.1,5-12.88,9.21-19.32,13.81-4.75,3.4-9.44,6.87-15,10.93,4.57,3.56,8.1,2.07,11.46,1.59s6.56-1.63,9.81-1.55a12.67,12.67,0,0,1,7.14,2.62c3.89,3.13,5.06,18.53,1.95,22.42-6.83,8.55-14.9,15.49-26.4,16-5.13.22-10.87-.1-15.4-2.2-10.29-4.74-21.12-4.8-31.87-5.22-15.91-.62-31.85-.41-47.78-.51-16.3-.1-32.6-.27-48.9-.21-24.94.1-49.88.54-74.82.54-26.93,0-53.86-.26-80.79-.58-15.95-.19-31.9-1.05-47.84-1-11.94,0-23.87,1.28-35.82,1.56-10.27.24-20.57.07-30.84-.25-10.95-.35-20.34-14.4-17.32-25,1.16-4.08,1.36-8.48,1.63-12.75q2.93-45.54,5.69-91.1c1.22-20.18,2.48-40.36,3.4-60.56.24-5.27-1.16-10.59-1.08-15.88.17-11.49,1-23,1.18-34.45.13-10.9-.45-21.82-.43-32.72,0-12.88.75-25.78.44-38.65C11.13,139.38,10,128.16,9,116.94c-.66-7.59-1.83-15.13-2.51-22.71-.79-8.8,2.86-13.72,11.41-15.5C28.55,76.49,39.28,74.5,50,72.33c9.74-2,16.79,2,22.22,9.77a33.63,33.63,0,0,0,2.53,3.07c.17.19.59.17.89.25.59-.24,1.57-.35,1.71-.75,4.21-11.66,9.2-23,8.12-36a101.25,101.25,0,0,1,2.69-34.15c1.61-6.15,4.3-7.2,9.82-3.92a40.88,40.88,0,0,1,4.13,2.79c6.13,4.74,12.08,6.9,19.91,2.57,3.09-1.71,8.87-.82,12.41.93,12.75,6.33,21.71,16.16,23.17,31,.5,5.09,2.51,6.8,7.42,7.1,34.91,2.11,69.78,1.12,104.65-1,21.19-1.27,42.39-2.4,63.57-3.69a119.36,119.36,0,0,0,13.89-1.47c8.53-1.53,15.2.12,17.89,9.85ZM366,317.82l2,.56c1.36-2.74,3-5.36,4-8.23,2.7-7.86,12.23-13.59,20.31-11.33A49.52,49.52,0,0,1,404,304.23c4.84,2.88,9,8.07,14.08,9.16,13.87,3,28.13,6.11,42.16,5.81,15.76-.34,31.32-4.46,46.18-10.9,5-2.15,6.82-4.48,7.11-9.14.86-13.9,1.59-27.81,2.58-41.7.53-7.51,1.51-15,2.23-22.5.94-9.87,2.07-19.74,2.65-29.64.56-9.57.32-19.18.83-28.75.66-12.24,1.68-24.47,2.64-36.7.23-2.95,1-5.85,1.25-8.8a79.1,79.1,0,0,0,.68-11.58c-.26-4.93-2.32-10-1.54-14.71,1.89-11.34,0-22.4-1.06-33.51-.72-7.6-4-9.25-11.41-7.62-8.36,1.84-16.7,3.79-25.13,5.21-7.14,1.2-14.42,2.46-21.61,2.34-7.59-.13-14.42-3.53-20.79-10.94-1,4.25-1.63,6.61-2,9-2.59,16.74-4.83,33.54-7.75,50.22a76.72,76.72,0,0,1-22.44,42.41c-3.15,3.09-6.18,5.74-11.11,5.59-18-.54-31.33-15.21-32.38-31.16-.34-5.19.37-10.83-1.46-15.45-2.94-7.41-1-14.32-.52-21.53.41-6.1-.11-12.27-.21-17.85-1.83-.77-2.45-1.29-3-1.25-22.8,1.64-45.81.86-68.26,6.68-5.67,1.47-12.13,2.12-17.8,1-16.55-3.34-33.14,2-49.61-1.09a54.89,54.89,0,0,0-13.62-1C198.46,87,182.26,88.6,166,89.8c-5,.38-7.91,2.51-8.94,7.57-1.58,7.79-3.46,15.52-5.3,23.25-3.63,15.26-11.6,28.13-22.19,39.45-1.68,1.79-4.49,3.64-6.73,3.59-7.2-.16-14.79-.12-20.51-5.58-2.52-2.41-4-5.85-6.47-8.39-8.62-9-12-20.11-13.22-32.1-.59-5.94-.42-12-1.33-17.87-.75-4.89-3.4-5.62-7.92-3.59A126.35,126.35,0,0,1,60.57,101c-6,1.94-12,3.57-18,5.35-4.86,1.43-6.4,4.18-6.06,9.64q1.67,26.85,1.86,53.78c.14,20.94-.35,41.9-.74,62.84-.69,36.92-1.36,73.83-2.31,110.74-.63,24.57-1.65,49.14-2.7,73.7-.28,6.55,2.16,11.08,8.36,13a34.52,34.52,0,0,0,10.66,1.75c9.31-.12,18.63-1.24,27.93-1.08,36.59.65,73.16,1.83,109.75,2.43,19.62.32,39.26-.23,58.89-.18,21.61,0,43.22.11,64.82.6,7.61.17,12.58-3.21,16.64-9,2.46-3.51,4.65-7.32,7.66-10.3,7-7,14.93-13.18,21.66-20.44,5.14-5.53,8.34-12.92,13.67-18.21,6.86-6.8,6.1-15.71,8.41-23.7,1-3.59-.06-8-.89-11.87-1.59-7.47-6.41-12.25-13-15.75-6.68,10.91,2.91,23.08-5.55,32.88-9.92-1.76-13.28-10-14.86-17.38-3.72-17.36-4.17-35.16-2.1-54.35-6-.68-12.18-2-18.29-1.95-18.29.26-36.57,1-54.85,1.73a85,85,0,0,0-13.79,1.81c-4.58,1-7.65,3.43-7.83,8.83-.19,5.63-1.53,11.24-1.64,16.87-.39,20.39-1.4,18.82,19.13,21.42,14.83,1.88,29.7,3.48,43.88,8.67,7.07,2.59,9.7,5.42,8.79,10-1.77,8.86-5.4,12.71-12.59,12.5-8.25-.24-16.48-1-24.73-1.39-7.64-.33-15.31-.82-22.94-.5-8.6.37-10.38,2.66-9.55,11.25a42.61,42.61,0,0,0,2.54,11.56c2.38,6,1.84,11.55-.46,17.15-8.36,0-8.38-.56-12.56-6-6-7.7-6.07-17.32-9.3-25.89-3-8-3.91-9.63-12.32-9.72-11.66-.12-23.33-.39-35,0-10.29.38-20.6,1.25-30.8,2.63-8.58,1.15-9.33,2.38-9.09,11,.16,5.74-.28,11.16-4.36,16.65-5.38-1.7-9.69-3.54-11.77-10.06-2.15-6.75-6-13-9.41-19.29-4.62-8.43-8-17-2.1-26,3.35-5.12,3.28-10.67,3.5-16.16s-1.07-11.3-.75-16.9c.34-6-1.36-10.75-6.42-13.52-10.25-5.59-9.9-16.11-13.6-25.23,2.56-1.33,4.36-2.12,6-3.15,6.53-4.13,9.77-13.5,7.65-20.69A148,148,0,0,1,107.83,224c-.68-4-2.33-6-6.47-5.79-5.32.26-10.64.43-16,.62-11,.4-17.31-6.85-21.65-15.12-6.22-11.83-.42-19.41,12.68-18.17,8.24.78,16.54,1.9,24.78,1.7,15.9-.39,31.78-1.93,47.68-2.4,35.92-1,71.86-1.49,107.77-2.65,18-.58,35.87-2.6,53.83-3.23,32.25-1.12,64.54-1.35,96.78-2.69,9.12-.38,18.13-3.36,27.21-5.11,5.2-1,10.38-2.24,15.63-2.8,6.61-.7,13.3-.63,19.93-1.23,16.05-1.45,23.67,7.43,19,23a13.25,13.25,0,0,1-6,7.16c-3.07,1.63-7,1.54-10.59,2.28-6.76,1.39-13.47,3.06-20.27,4.2-9.81,1.65-19.65,3.61-29.54,4.19-12.6.73-25.29,0-37.92.35-3.75.09-7.46,1.53-10.55,2.2l-5.46,42.55c6.1,4.3,12.3,2.55,18.11,3.15,7.93.81,15.93,1.2,23.74,2.64,5.91,1.08,7.54,5.68,5.27,11.38-2.86,7.18-8.11,11.13-15.74,11.8-4.31.38-8.66.3-13,.63-4.63.35-9.28.74-13.86,1.47-5.24.84-8.08,3.68-7.93,9.52.17,6.3-.54,12.63-.63,18.95C364.75,314.32,365.55,316.07,366,317.82ZM251.11,254.71c3.21.74,6,1.94,8.87,2q37.35.12,74.71-.18c7.3-.06,10.42-3.4,11.93-12,.92-5.21,1.65-10.47,2.39-15.71.91-6.42,1.74-12.86,2.74-20.34-5.92-.26-10.46-.75-15-.6-14.85.48-29.7,1.12-44.55,1.82-11.94.56-23.89,1.15-35.81,2.05-3.45.26-6.81,1.67-9.86,2.46ZM118.52,220.1c9.44,9.78,12.48,20.54,14.8,31.68,1.41,6.78,2.39,7.34,9.38,7.3q18.47-.1,36.94-.32c11-.14,22-.11,32.94-.66,11.6-.58,17.65-6.79,16.71-17.56-.63-7.21-2.68-14.29-4.06-21.44-1-5.12-4.31-7.26-9.24-7.21q-10,.12-19.91.46c-9.94.35-20,2-29.78.92-12.16-1.36-23.7,1.09-35.44,2.64C127.39,216.37,124.08,218.16,118.52,220.1Zm21.92,113.13c2.28.38,4.52,1.12,6.75,1.07,12.27-.28,24.54-.79,36.81-1.15,10-.29,20-.23,29.95-.77,6.8-.37,12.34-4.37,12.95-9,.88-6.82,1.48-13.69,1.91-20.55.75-11.83-2-15.07-13.94-15-20.29.11-40.59.55-60.87,1.19a23.92,23.92,0,0,0-10.37,3.11,9.18,9.18,0,0,0-4.07,6.06C138.16,309.71,137.37,321.3,140.45,333.22ZM377.6,421c4,0,6.75.76,8.74-.14,7.2-3.23,14.57-6.38,21.1-10.73,9-6,17.24-13.27,26-19.68,13.33-9.71,26.93-19,40.25-28.77,4.54-3.31,8.61-7.27,12.85-11,2.46-2.15,3.75-4.59.81-8.81-5,1.37-10.19,3.2-15.57,4.18-6.43,1.16-13,2.46-19.48,2.12-10.83-.57-21.57-3.09-32.4-3.49-15-.56-14.46,0-15.17,15.39-.68,14.67-4.38,28.66-13.41,40.81C387.06,406.72,383.18,412.83,377.6,421ZM129.28,44.55c-3.64,1.31-7.66,2.57-11.52,4.19-5.18,2.17-8.49,5.28-8.7,11.84-.53,16.13-2.35,32.23-2.81,48.36-.19,6.68,1.77,13.42,3.07,22.25,8.81-8.06,16.13-14.55,17.8-24.45,2-12,2.68-24.31,4.08-36.46C132.16,61.91,135.08,53.48,129.28,44.55Zm267.6,84.63A37.82,37.82,0,0,0,411,107.45c1.91-8.21,2.78-16.69,3.8-25.08.75-6.16,1.23-12.38,1.41-18.59.18-6.39-.15-12.79-.28-20.59-8.27,4.13-14.1,7.36-15.92,15.58-4.58,20.77-7.81,41.65-7.39,63C392.73,125,392.83,127.75,396.89,129.18Z"/></svg>
