<svg id="Layer_1" data-name="Layer 1" xmlns="http://www.w3.org/2000/svg" viewBox="0 0 571.99 429.33"><defs><style>.cls-1{fill:#fff;}</style></defs><title>infographic</title><path class="cls-1" d="M41.34,69.43c-2.74,3.17-5.54,6.28-8.2,9.52S28.07,86,25.07,89.06c-4.45,4.54-8.56,5.53-13.35,1.62A41.25,41.25,0,0,1,.9,76.84c-3.1-6.53,2.46-10.57,6.42-15.09q17.39-19.82,34-40.3c3.05-3.78,4.68-8.72,6.93-13.14,4-7.81,8.18-9.2,17-7.87,7.63,1.16,13.55,4,18.37,10.13,1.52,1.93,3,3.39,4.11,5.85,2.27,5,5.92,9.39,9.37,13.74,7.42,9.36,15.06,18.55,22.64,27.79,3.77,4.59,3,9.47.2,13.86-2.71,4.18-7.14,5.72-12.19,5.3-8.2-.67-14.17-5.17-19.41-11-3-3.38-6.06-6.74-10.83-12-.92,10-1.8,17.42-2.25,24.89-1.33,21.92-3,43.83-3.62,65.77-1.08,38.24-1.37,76.5-2.18,114.74-.67,31.66,2.59,63.07,5.8,94.48,1,9.55,3.81,18.89,5.44,28.39.76,4.41,3.17,6.37,7.29,6.68a92.71,92.71,0,0,0,9.93.38q30.4-1,60.8-2.18c2.31-.09,4.61-.59,6.93-.65,8.92-.24,17.86-.25,26.77-.59,5.61-.21,11.19-.94,16.8-1.28q11.92-.72,23.86-1.19c20.81-.83,41.62-2,62.45-2.27,14.87-.22,29.76.81,44.64,1,7.23.11,14.47-.29,21.7-.54,12.56-.44,25.13-.67,37.66-1.48,25.76-1.67,51.53.86,77.31-.77,12.51-.79,25.18.91,37.78,1.35,5.94.21,11.89.14,17.83.11,7.22,0,14.46.11,21.67-.33,9.24-.57,15.85,4.88,16.57,14.21.33,4.25.59,8.52,1.15,12.74,1.49,11.26-6.66,18.82-18,16.92-9.43-1.58-19-2.54-28.4-4.05-4.14-.66-8.13-2.67-12.25-2.92-25.88-1.58-51.76-3.49-77.67-4-25.54-.54-51.13,0-76.68.79-28.54.94-57,2.83-85.57,4.23-25.6,1.25-51.2,2.49-76.81,3.55-17.59.73-35.22.73-52.79,1.79-23.84,1.43-47.65,3.51-71.46,5.43-7.85.63-16.62-4.87-20-13.38-3.67-9.27-4.91-18.94-5.55-29-.92-14.54-3.75-28.94-5.37-43.45C37.8,312,37,280.48,37.4,248.85c.21-18.28-.7-36.59-.21-54.86.64-24.25,2.11-48.47,3.3-72.71.83-16.93,1.8-33.85,2.71-50.77Z"/><path class="cls-1" d="M255.13,284.39c.86-24.9,1.4-49.82,2.64-74.71,2.21-44.28.92-88.49-1.92-132.68-.38-5.86-2-11.63-3-17.45-2.3-13.44,2.24-19,15.64-18a60.17,60.17,0,0,1,16.22,4c17,6.31,34,7.35,51.31,1.74,5.66-1.83,11.34-3.62,16.94-5.64,16.84-6.06,35.46,7.25,34.85,25.16-.4,11.6-1.66,23.18-1.8,34.78-.24,20.9-.07,41.8.19,62.7.21,16.57.56,33.14,1.37,49.68.47,9.55,2.12,19,3,28.57,1.27,14.42,2,28.89,3.52,43.28.9,8.72.12,17.56,5.52,25.87,2.32,3.58,5.53,10.86-.77,15.9-.83.67-1.09,2.41-1.12,3.67-.26,11.65-6.89,18.69-16.74,23.49a9.09,9.09,0,0,0-2.35,1.77c-12.43,12.41-28.06,10.74-43.5,9.88-4-.22-7.92-.68-11.88-.75-10.58-.18-21.29.75-31.69-.67-5.39-.74-11-4.73-15.15-8.65-6.19-5.8-11-13.07-16.85-19.24-3.09-3.25-3.88-6.67-3.86-10.79.07-14,0-28,0-41.94ZM356.7,326.45c1.3-6.38,3.34-12.41,3.6-18.52.45-10.9.2-21.86-.42-32.76-1.71-29.87-4.23-59.7-5.52-89.59-1.07-24.93-.82-49.91-1.24-74.86-.09-5.61-.58-11.21-.84-16.81-.24-5.18-.43-10.37-.65-15.92-2.71-.15-4.32-.39-5.91-.3-15.81.89-31.38,5.17-47.49,2-6-1.2-8.71,2.4-8.72,9.12q0,20.42.17,40.85c.16,18.94.55,37.88.53,56.82,0,9-.89,17.93-1.06,26.9-.44,24.24-1.34,48.5-.8,72.72.3,13.52,3,27,4.8,40.48.78,5.76,4.74,8.76,10.28,9.17C322,337,340.5,337.26,356.7,326.45Z"/><path class="cls-1" d="M97.43,187.51c2.38-5.94,5.06-12.76,13.89-14-.26-3.28-.92-6.15-.62-8.91.41-3.77,1.87-6.5,6.62-7.3,17.31-2.9,34.53-6.38,51.79-9.62,8.78-1.65,17.54-3.46,26.36-4.82,8.31-1.28,15.53,2.78,22.76,5.88,7,3,5.08,10.1,3.79,14.7-4.17,14.91-3.59,30.15-4.95,45.25-1.37,15.28-.89,30.52.37,45.77.27,3.28-.25,6.61-.33,9.92-.48,19,1,37.8,5.63,56.28,1.67,6.71,4,13.26,5.42,20,1.76,8.66-1,15.52-8.59,19.15-18.67,8.89-37.82,16.25-59.23,12.19a19.21,19.21,0,0,0-5-.24c-12.18.92-18.9-7.46-24.8-15.79-2.07-2.92-3.54-5.33-6.72-7.44-6.55-4.35-10.19-10.54-10.6-19.14-1.16-24.52-3.23-49-4.8-73.48-.49-7.64-.12-15.35-.93-22.94-1.19-11.15-2.84-22.26-4.83-33.3C102,196.07,99.73,192.7,97.43,187.51Zm37.77-3.33c.84,18.2,1.36,35.65,2.52,53.05q2.52,37.76,5.89,75.45c.85,9.35,2.94,18.58,4.4,27.47,5.27,1.4,9.05,2.65,12.94,3.36a52.9,52.9,0,0,0,8.94.5c15.42.15,20.53-5.79,18.86-21-1.41-12.84-3-25.73-3.24-38.62-.52-27.89,0-55.79-.44-83.68-.15-8.72,1.48-17.81-2.55-26.91C165.75,174.68,150.38,180.2,135.2,184.18Z"/><path class="cls-1" d="M452.74,333.61c-5.11-.91-10.86-.24-13.6-2.8-4.92-4.6-10.63-9.79-11.2-17.24-1.25-16.2-2.24-32.43-2.75-48.66-.68-21.57-.73-43.15-1.22-64.72-.07-2.93-1.19-5.82-1.66-8.76-1.06-6.5,3.27-12.47,9.22-14.52,12.44-4.3,25.48-3.67,38.19-4.36,18.79-1,37.69.09,56.54.26a16.66,16.66,0,0,0,4.8-.36c13.58-4,27.41,1.12,34.56,13.48a10.89,10.89,0,0,1,.46,8.19c-4.13,11.15-4.79,22.43-4.06,34.24,1.07,17.15,1,34.37,1.21,51.57.2,17.93,2.08,35.61,6.87,52.95,2.67,9.63-1.07,15.54-10.81,18.64-5.88,1.87-11.94,3.31-16.35,8.65-1.83,2.22-5.84,3.33-9,3.67-18.44,2-36.93,4-55.4.1-3.25-.68-6.57-1.56-9.84-1.46-7,.21-11.1-3.38-15.85-8.28-5.9-6.09-6.1-11.06-1.91-17.42C451.67,335.66,452.25,334.47,452.74,333.61Zm81.35-3.4c-.65-8.6-1.32-15.8-1.72-23-.48-8.64-.65-17.29-1.12-25.93-.72-13.14-1.79-26.27-2.31-39.41-.44-11-.12-21.94-.49-32.89-.21-6.17-1.48-6.92-8.18-7.13-6-.19-12-.87-17.92-.64-12.25.47-24.51,1.13-36.72,2.25-6.73.61-7.44,1.93-7.92,8.92q-.27,4-.39,8c-.49,16.23-1.16,32.46-1.36,48.7-.15,12.93-.24,25.91,5.11,38.19,3.17,7.26,5.66,14.72-.51,22,21,7.75,41.59,5.44,62.21,2.45C526,331.16,529.23,330.81,534.09,330.2Z"/></svg>