<svg id="Layer_1" data-name="Layer 1" xmlns="http://www.w3.org/2000/svg" viewBox="0 0 551.37 389.12"><defs><style>.cls-1{fill:#ff8d00;}</style></defs><title>story</title><path class="cls-1" d="M550.37,156.4c.32-5.65-3.8-8.47-7-11.8a5.61,5.61,0,0,0-7.6-.91c-14.65,9.79-31.71,13.82-48.06,19.07-23.43,7.52-47.14,14.12-70,23.41-18.87,7.67-38,14.8-56.71,22.77-15,6.39-30,12.82-46,16.29-3.51.76-5.83,2.34-6.15,6.44-.13,1.71-1.65,3.45-2.87,4.9-1.44,1.71-3.72,2.84-4.81,4.7-4.95,8.43-10.12,16.79-14.24,25.62a85.84,85.84,0,0,0-8.2,40.19c.5,12.69,2.1,25,8.12,36.37a58.17,58.17,0,0,1,2.36,6.25c-2.67,1-5,2.65-7.08,2.48a61.19,61.19,0,0,1-13.81-2.74c-10.63-3.48-19.37-10.69-29.52-15.31-13.52-6.17-28-10.07-40.78-18-6.37-4-12.87-7.76-19.29-11.65-2.77-1.68-5.51-3.42-8.27-5.12-5.3-3.28-10.81-6.28-15.88-9.89-9.73-7-18.81-14.89-28.91-21.22-9-5.66-18.09-11.47-28.11-15.56-4.74-1.94-8.88-5.38-13.26-8.18C80.49,242,76.7,239.63,73,237.1c-6.77-4.63-15.11-6-21.8-11.08-4.49-3.39-10.12-5.28-15.24-7.84-8.21-4.11-14.15-10-12.34-18.83a16,16,0,0,0-1.47-10.13,55.08,55.08,0,0,1-4.23-30.07,37.71,37.71,0,0,0,.11-3.78c.31-10.44-.12-20.94,7-29.93,2.25-2.83,3-6.86,4.49-10.29.68-1.52,1.31-3.32,2.53-4.29,10.17-8,19.86-16.75,32-21.9,3.22-1.37,6.57-2.51,9.62-4.18,16.46-9,33.82-16.1,50.85-23.9,6-2.74,12.23-4.32,18.39-6.36,9.43-3.13,18.29-8,27.47-11.92a88.7,88.7,0,0,1,14.08-5.17c9.77-2.34,19.6-4.36,28.05-10.21,4.75-3.29,8.89-3,13.79.3,7.66,5.18,15.64,9.92,24.78,12.38,6,1.62,11.93,3.79,17.8,5.94q23.63,8.66,47.18,17.53c3.06,1.14,6,2.49,9,3.78,6.21,2.67,12.39,5.39,18.6,8,11.32,4.79,22.7,9.41,34,14.32,9.4,4.09,18.55,8.75,28,12.68,16.18,6.73,32.53,13,48.76,19.63,7,2.83,13.63,6.53,20.76,8.83,8.41,2.71,16.59,5.67,23.95,10.64a24.37,24.37,0,0,0,14.34,4.62c1-2.91,3.28-6.17,3-9.22-.45-5.35-1.06-11.63-4.13-15.56-3.47-4.46-9.36-7.68-14.83-9.77-7.2-2.76-14.8-4.38-22.06-7.33-11.26-4.57-23.1-7.71-34.54-11.89-7.75-2.83-15.22-6.41-22.82-9.64-11.2-4.76-22.42-9.49-33.62-14.27-8.26-3.53-16.45-7.25-24.77-10.64-17.35-7.07-34.68-14.18-52.17-20.88-14.47-5.54-29.23-10.31-43.72-15.79C253.58,17,243.43,12.73,233.42,8.17c-4.27-1.95-8-5-12.87-8.17l-5.93,10.31c-10.42-4.76-20.29-3.91-30,1-3.57,1.81-7.37,3.16-11,4.76l-56,24.23C98.62,48.5,79.74,56.75,60.78,64.82c-5.53,2.35-11.13,5.15-17,6.06-8.24,1.28-14.2,5.46-19.95,10.94-3.32,3.17-6.11,6.06-7.56,10.75a68.3,68.3,0,0,1-8.07,16.92C4,115.93,1.18,122.79.65,130.26A215.66,215.66,0,0,0,1.9,176c.7,4.91,1.31,10.21.22,14.93-2.07,8.91,2.06,16.73,4.1,24.54,1.56,5.94,7,11.66,13.25,14.9,12.21,6.38,23.4,14.67,36.65,19.13a98,98,0,0,1,16.48,7.39c13.13,7.35,26.31,14.68,39,22.76,16.7,10.63,33,21.81,49.36,33,12.6,8.66,25.79,16.3,38.89,24.16,14.69,8.81,31,13.91,45.73,22.54,9,5.28,18.55,9.74,27.08,15.9,4.06,2.93,7.87,6.2,12,9,8.72,6,17.59,6.76,26.63.43a59.19,59.19,0,0,1,8-4.24c11.24-5.53,22.25-11.58,33.8-16.35,12.49-5.16,25.48-9.11,38.26-13.58,21.55-7.53,43.22-14.73,64.61-22.68,22.09-8.21,43.88-17.24,65.87-25.72,4.79-1.85,6.63-5.1,6.41-9.87-.4-8.64-3.31-16-10.06-21.9-2.53-2.2-4.25-5.41-6-8.34-5.08-8.27-1.41-17.16-1.24-25.71.1-5.1,2.27-10.23,3.9-15.23,2.6-8,4.46-16.23,9.51-23.28,4.07-5.69,7.44-11.88,11.39-17.67,2.11-3.09,4.56-5.72,8.78-6.58,5.17-1.06,6.83-3.54,7-9.1C551.43,161.77,550.22,159.05,550.37,156.4Zm-47.72,44a246.39,246.39,0,0,0-8.23,24.94c0,.12,0,.24,0,.35-.93,7.72-2.46,15.42-2.78,23.17A50.54,50.54,0,0,0,498,275.59a78.68,78.68,0,0,1,3.17,7.66c-19.23,8.1-38.29,16-58.17,23.48q-1.36.68-2.72,1.32c-5.06,2.37-10.24,4.5-15.41,6.61-1.83.75-3.67,1.63-5.55,2.23,7.33-2.36.31,0-1.3.66a241.85,241.85,0,0,1-28.22,10.13c-9.93,2.85-20,5.23-30,7.67-1.8,1.79-3.69,3.26-6.44,1.58l-2,.5a3.54,3.54,0,0,1-1.43,1.48c-10.54,4.08-21.14,8-31.74,11.93-2.28.85-4.5,1-6.1-1.31-5.34-7.58-12.11-14.59-15.48-23-2.66-6.61-5.84-14.5-1.82-22.56,1.33-2.67.49-6.42.69-9.68.44-7.22,4.05-13.46,7.39-19.41,4.14-7.38,9.83-13.93,15.11-20.63a13.25,13.25,0,0,1,5.54-3.61c11.23-4.36,22.7-8.16,33.78-12.87,16.39-7,32.4-14.82,48.8-21.77,10.16-4.31,20.72-7.65,31.11-11.41,4-1.45,8-3,12.06-4.3q19.33-6.25,38.7-12.39a9.66,9.66,0,0,1,3.1-1l5.52-1.73c2.74-.85,5.73-.86,9.77-1.42l-3.59,10.92A8.32,8.32,0,0,1,502.65,200.39Z"/><path class="cls-1" d="M343.84,267.72l103.74-39.28c16.55-6.27,33.28-12.58,50.82-15"/><path class="cls-1" d="M345.44,273.5,423.24,244c25-9.46,50.15-20.94,76.75-24.82,7.61-1.11,4.38-12.68-3.19-11.57C470.2,211.54,445,223,420.05,232.47l-77.81,29.46c-7.15,2.71-4.05,14.31,3.19,11.57Z"/><path class="cls-1" d="M499.62,239.81c-62,7-117.1,41.22-176.07,61.55"/><path class="cls-1" d="M499.62,233.81C436.3,241.27,381.27,275,322,295.58c-7.25,2.52-4.13,14.11,3.19,11.57,58.05-20.14,112.53-54,174.48-61.33,7.58-.89,7.67-12.9,0-12Z"/><path class="cls-1" d="M502.82,264.9q-83.53,27.42-166.26,57.2"/><path class="cls-1" d="M501.23,259.11Q417.7,286.54,335,316.31c-7.21,2.6-4.1,14.2,3.19,11.57q82.72-29.77,166.26-57.2c7.3-2.4,4.18-14-3.19-11.57Z"/><path class="cls-1" d="M299.1,212.56c.11,9.14-1.47,10.93-7.87,9.24-4.21-1.12-9.09-3-11.69-6.21-7.11-8.69-17-12.35-26.63-16.31-14.8-6.09-29.88-11.52-44.9-17.07-3-1.12-6.4-1.31-9.46-2.36-16.12-5.51-32.23-11-48.26-16.79-7.76-2.78-15.37-6-23-9.13-6.44-2.66-12.75-5.62-19.19-8.28C98.65,141.71,89,138.16,79.65,134a45.42,45.42,0,0,1-11.31-7.2c-1.59-1.39-2-4.43-2.38-6.82-.24-1.35.49-2.88.87-4.31.66-2.54,1.26-7.18,2.11-7.23,3-.18,6.2,1,9.19,2,5.59,1.92,11.23,3.81,16.62,6.21,11.8,5.24,23.4,10.91,35.2,16.14,5.24,2.33,10.75,4.07,16.17,6,13.42,4.76,26.84,9.55,40.32,14.15,2.58.88,5.45.86,8.16,1.39a32.64,32.64,0,0,1,5,1.4c3.94,1.45,7.85,3,11.76,4.52,2.75,1.09,5.5,2.2,8.21,3.39,1.14.5,2.21,1.83,3.26,1.77,5.31-.27,9.37,3,14.06,4.41,15.48,4.57,29.78,11.75,44.13,18.87,2.22,1.1,4.59,1.94,6.74,3.16C296.7,197,297.33,206.27,299.1,212.56Z"/></svg>
