<svg xmlns="http://www.w3.org/2000/svg" viewBox="0 0 200 200"><polygon points="45.9 82.39 57.12 71.18 29.66 43.73 43.73 29.66 71.19 57.12 82.39 45.91 87.87 87.87 45.9 82.39" style="fill:#fff"/><polygon points="29.66 156.27 57.12 128.82 45.9 117.6 87.87 112.13 82.39 154.09 71.19 142.88 43.73 170.34 29.66 156.27" style="fill:#fff"/><polygon points="128.81 142.88 117.61 154.09 112.13 112.13 154.09 117.61 142.88 128.82 170.34 156.27 156.27 170.34 128.81 142.88" style="fill:#fff"/><polygon points="117.61 45.91 128.82 57.12 156.27 29.66 170.34 43.73 142.88 71.18 154.1 82.4 112.13 87.87 117.61 45.91" style="fill:#fff"/></svg>