<?xml version="1.0" encoding="utf-8"?>
<!-- Generator: Adobe Illustrator 22.1.0, SVG Export Plug-In . SVG Version: 6.00 Build 0)  -->
<svg version="1.1" id="Layer_1" xmlns="http://www.w3.org/2000/svg" xmlns:xlink="http://www.w3.org/1999/xlink" x="0px" y="0px"
	 viewBox="0 0 450.9 385.5" style="enable-background:new 0 0 450.9 385.5;" xml:space="preserve">
<style type="text/css">
	.st0{fill:#FFFFFF;}
</style>
<title>finance-and-professional-services</title>
<g id="sjZ9LM.tif">
	<g>
		<path class="st0" d="M52.8,127.2c0.7,49.9-2.3,100-3.6,149.6c-0.1,4.1,2.5,8.3,3.8,12.4c4-1.9,9.1-2.7,11.7-5.7
			c25.1-28.6,49.8-57.5,74.6-86.4c8.6-10,17.2-20.1,25.6-30.3c2.5-3,5.1-6.1,6.4-9.7c7-18.4,24.3-24.4,40.7-13.7
			c10.5,6.9,20.2,13.8,22.3,28.2c1,6.6,6.7,13.1,11.7,18.4c6.6,7,14.4,5,20.8-0.9c7.2-6.5,14.4-13.2,20.6-20.7
			c17.7-21.7,35.1-43.8,52.3-65.9c9.6-12.4,7.8-17.3-7.2-21.8c-10.6-3.2-17.3-10.1-20.2-20.7c-3.3-11.9,0.6-21.2,12.3-25.4
			c9.1-3.3,18.8-4.8,28.2-7.5c15.6-4.6,32.4-7.2,46.4-14.7c28.1-15.1,32.6-7.8,49.2,18.5c4.2,6.6,1.8,17.7,1.4,26.6
			c-0.6,14.8-2,29.5-3.2,44.3c-0.6,7.8-0.9,15.6-2.5,23.2c-2.3,11.1-23.3,26.1-32.9,14.8c-2.7-3.2-3.6-7.5-4.5-11.7
			c-1.8-8.9-2.7-18.7-5.9-27.2c-5.9,1-13.8,6.4-17.7,11.4c-27.3,35.4-54.1,71.3-80.7,107.2c-6.9,9.4-12.2,19.9-19.1,29.3
			c-16.5,22.5-39,23.1-55.6,1.1c-7.5-9.9-13.5-20.9-19.9-31.6c-9-15.1-19-17.5-30.6-4.6c-11.3,12.6-20.3,27.2-30.5,40.8
			c-7.2,9.6-14.4,19.3-22.4,28.3c-10.1,11.3-21.4,21.6-31.5,33c-3.3,3.7-4.3,9.4-6.3,14.2c5.1,2.1,10.3,6,15.4,5.9
			c21-0.5,42-3.1,63-3.3c57.3-0.5,114.5,0.4,171.8-0.6c18-0.3,36-4.6,53.8-8.1c11.8-2.3,23.8-0.9,29.8,8.3
			c6.3,9.8,9.8,22.7,10.4,34.5c0.5,9.1-19.8,17-33.1,16.6c-22.1-0.7-44.3-0.3-66.4-0.7c-22.6-0.4-45.2-1.8-67.8-2
			c-35.4-0.3-70.7-0.3-106.1,0.2c-28,0.4-56,1.6-84.1,2.6c-10.9,0.4-21.8,0.7-32.6,2c-18,2.2-29.5-6-37.5-22.5
			c-5.8-12.1-2.7-21.9-0.4-33.5c4.1-20.9,7-42.1,8.5-63.3c2.3-33.8,4-67.6,4.1-101.5c0.2-45.5,3.6-91.2-7.5-136.1
			c-1.2-4.8-1.6-10.2-0.7-15C9.3,0.6,23.5-4.6,31.6,4.8c6.4,7.3,12.7,16.7,14,25.9C50.5,62.7,52.4,94.9,52.8,127.2z"/>
	</g>
</g>
</svg>
