<svg id="Layer_1" data-name="Layer 1" xmlns="http://www.w3.org/2000/svg" viewBox="0 0 362.39 509.87"><defs><style>.cls-1{fill:#ff8d00;}</style></defs><title>insight</title><path class="cls-1" d="M0,140c.57-10.66-.7-21.43,3.5-31.55,7.62-18.37,18-34.64,35.76-45.11a48.62,48.62,0,0,0,8-5.87C57.3,48.36,69.91,43.89,81.72,38c8.88-4.43,17.67-9.11,26.79-13,22.3-9.47,44.86-18.35,68.74-23,15.17-3,30.53-3,45.08,2.66,19.43,7.59,38.74,15.59,57.62,24.47A159.87,159.87,0,0,1,308.59,47c6.21,4.75,11.45,11.1,16.1,17.49,14.68,20.14,26.35,41.67,33.41,66,5.28,18.18,4.79,36.27,3.24,54.31-.94,11-5.8,21.72-9.66,32.28-4.27,11.7-8.76,23.41-14.37,34.5-5.32,10.52-12.18,20.27-18.45,30.3-8.08,12.93-15.23,26.26-20.06,40.84-2.21,6.68-6.36,11.79-14.4,13.4-9.56,1.92-23.37-13.29-19.29-23.17,2-4.79,5.08-9.18,8.06-13.49,2.63-3.8,6.3-6.94,8.64-10.88q16-26.85,31.38-54c11.58-20.48,18.86-42.55,20.63-66a109.27,109.27,0,0,0-13.09-61.92,215.76,215.76,0,0,0-22.82-33.52c-8-9.78-19.05-18-30.29-24-15.68-8.41-32.54-14.86-49.38-20.76-8.6-3-18.25-3-27.44-4.35a6.83,6.83,0,0,0-3,.08C167.2,30.84,145,32,125.48,42.85c-8.87,4.94-19,7.45-28.3,11.77C90.33,57.82,84,62.12,77.47,66c-6.26,3.71-12.42,7.59-18.71,11.24C54,80,29,105.9,28,110.34c-3.83,15.78-8.35,31.47-6.14,48.11,1.79,13.48,2,27.23,4.58,40.53A324.63,324.63,0,0,0,38.25,242.9a159.81,159.81,0,0,0,30.92,52.82c6.31,7.24,13.58,13.65,20,20.84,2.77,3.12,5.37,7,6.34,11,1.73,7.07-3.1,10.65-9.88,7.86a20.4,20.4,0,0,1-5.7-3.78c-9.14-8.24-18.51-16.26-27.15-25a138.79,138.79,0,0,1-15.48-19.2c-9.63-14.05-16.43-29.7-22-45.63-6.06-17.48-11-35.43-12-54.18C2.48,171.74,1.13,155.89,0,140Z"/><path class="cls-1" d="M197.84,194.12c5.42-3.62,6.69-8.57,7-13.49,1.07-17,8.61-31.09,19-44,5.66-7,13.5-10.56,22.12-12.06,5.38-.94,12.91,5.29,15.48,11.87.83,2.12,1.21,4.54,2.47,6.35,6.34,9.15,3.62,17.88-1.61,26-6.21,9.58-13,18.78-20,27.81-2.68,3.46-7.43,4.83-8.3,10.32-1.38,8.75,0,17.35,5.18,23.65,8.92,10.92,4.88,21.93,2.76,33.08-.89,4.67-5.42,7-10.17,5.29-5.23-1.93-11.09-4.06-14.7-7.95s-4.87-9.94-6.83-15.17c-.8-2.12-.57-4.6-1.06-6.86-1.54-7.23-3.44-8.86-10.57-9.35-3.32-.23-6.63-.42-10-.62-5.15-.31-9.76-1.44-12.84-6.27-2.78-4.36-6.91-5.06-11.26-2.45s-8.81,5-12.19,8.46c-2,2-2.9,6.18-2.49,9.13,2.45,17.64-3,34.29-5.77,51.26-1.66,10.05-8.68,13.21-18,13.72-3.63-2.36-7.6-4.68-11.28-7.4-6.72-5-8-11.78-3.71-19,1.68-2.86,3.78-5.49,5.32-8.42,6.17-11.77,2.86-24,.07-35.59-.87-3.63-7.07-6.45-11.32-8.71-10.67-5.68-20.85-12-26.76-22.88-2.26-4.17-3.94-9.38-3.73-14a199.84,199.84,0,0,1,3.8-28.61,40.27,40.27,0,0,1,5.43-13.46c4.55-7.23,14.1-9.61,21-5,7.61,5.1,14.49,10.56,17.93,20.36,2.59,7.38,9.24,13.45,14.58,19.69,3.13,3.66,7.37,6.41,5.54,12.29,4.92-.06,6.45-2.64,5.42-5.85-2.42-7.57,0-15.35-2.37-23.21-3.38-11.15,5.1-23,16.68-28.06,5.65-2.45,11.29-7.7,18.55-4.89,2.36.91,5.13,1.54,6.85,3.2a54.13,54.13,0,0,1,14.75,23.19c1.16,3.78,1,6.57-1.87,9.95a71.18,71.18,0,0,0-9.8,15.77C188.43,188.14,193,191.14,197.84,194.12Z"/><path class="cls-1" d="M119.81,399c21-10.24,43.82-21.49,66.78-32.48a92.7,92.7,0,0,1,14.67-5.17c12.66-3.61,25.27-7.55,38.12-10.27,10.89-2.3,23.56,11.22,21,21.26-1.73,6.69-6.55,9.77-12.79,11-10.4,2.09-20.83,4-31.26,5.93-1,.18-2.09-.14-3,.21-11.94,4.74-23.93,9.37-35.73,14.44-6.69,2.88-13.12,6.41-19.55,9.86A85.76,85.76,0,0,0,146.27,421c-7.06,5.4-10.7,5.78-18,.92-1.11-.74-2.17-1.56-3.27-2.3C118.7,415.37,114.8,410.15,119.81,399Z"/><path class="cls-1" d="M234.38,344.78c-10,2.1-20.26,3.38-29.94,6.49a384.68,384.68,0,0,0-38.88,15.1c-7.14,3.19-13.6,8-20.2,12.31-8.56,5.6-10.72,5.76-18.6.47-11.13-7.47-11.21-20.41.34-26.26,24.84-12.6,49.94-24.71,76.69-32.84,9.24-2.81,18.83-4,28.48-2.5a30.46,30.46,0,0,1,10.29,3.41c6.53,3.77,7.34,8.91,3.85,19.35C244.57,345.79,242.72,346.67,234.38,344.78Z"/><path class="cls-1" d="M151.41,460.59c-4.49-3-9.25-5.46-13.08-8.93-7.67-7-6.95-14.69,1.52-20.31a155.4,155.4,0,0,1,45.06-20.67c8.63-2.36,17.11-5.32,25.81-7.32,9.16-2.1,18.49-2.16,27.51,1.1,7.51,2.72,11.75,8,11.3,13.51-.6,7.44-5.93,13.34-13.9,14.75-7.21,1.28-14.49,2.13-21.74,3.15A139.14,139.14,0,0,0,151.41,460.59Z"/><path class="cls-1" d="M146.14,498.89c-1.49-12.23,5-16.94,14.16-20.69,16.2-6.63,32-14.23,48-21.44,10.83-4.89,21.1-3.9,27.84,2.71,7.92,7.77,5.79,17.7-4.58,21.8-11.67,4.62-23.38,9.17-34.9,14.13a177.09,177.09,0,0,0-19.46,9.81c-11.29,6.61-16.16,6.4-25.9-2C149.52,501.68,147.73,500.23,146.14,498.89Z"/></svg>
