<svg id="Layer_1" data-name="Layer 1" xmlns="http://www.w3.org/2000/svg" viewBox="0 0 434.42 492.18"><title>pharmaceutical-and-medical</title><defs><style>.cls-1{fill:#fff;}</style></defs><path class="cls-1" d="M314.37,0c59.17,4.27,101.38,49,116.29,93.22,11.52,34.17-5.5,62-23.36,89.79-24.51,38.13-46.08,78.16-71,116-18.84,28.55-44.2,53.09-60.94,82.66-27.7,48.91-69.18,79.46-118.29,102.2-44.33,20.53-91.15,0-112.28-27.39C8,408.86-13.56,354.61,9.58,293.08c6.25-16.64,15.54-32.5,25.51-47.32C83.5,173.9,132.71,102.58,193,39.84c5.1-5.31,10.92-11.69,17.53-13.52C245,16.83,279.73,8.64,314.37,0Zm-37,289.68c13.69-19.35,25-35.87,36.87-52,27-36.84,52.36-74.57,65-119.14,6-21.16-6.86-46.51-27-55.39C297.45,39,242.74,52.69,206.13,100.34,191.18,119.79,176.64,139.61,163,160c-3,4.5-3.92,13.46-1.43,18,5.66,10.29,12.87,20.36,21.51,28.27C213.23,233.84,244.24,260.49,277.39,289.68ZM168.77,417.8c-2.08.79.52.09,2.85-1.14,35.64-18.79,53.36-53.57,74.71-84.93,1.78-2.61-1.35-12.19-4.73-14.14-41.1-23.79-71.72-58.23-99.77-95.53-6.31-8.38-13.53-11.55-21.83-1.26C102.68,242.3,83.05,262.2,67.73,285c-32.14,47.85-32.33,93-1,130.67,7.65,9.19,21.66,13.1,32.74,19.44l3.87-6.31c-1.44-2.48-3.29-4.83-4.26-7.49-2.87-7.91-9.71-18.4-6.93-23.3,3.27-5.77,14.8-7.61,23.13-9.55A123.38,123.38,0,0,1,144,385c10.34.09,20.67,2.27,31,3.53C172.85,398.75,170.65,409,168.77,417.8Z"/></svg>
