<svg xmlns="http://www.w3.org/2000/svg" viewBox="0 0 200 200"><polygon points="98.08 31.98 81.24 22.67 53.37 65.59 76.26 65.59 98.08 31.98" style="fill:#fff"/><polygon points="110.33 65.59 123.16 45.85 106.31 36.54 87.45 65.59 110.33 65.59" style="fill:#fff"/><polygon points="117.7 106.72 148.22 59.71 131.38 50.4 117.7 71.47 117.7 106.72" style="fill:#fff"/><polygon points="91.01 112.57 109.26 119.72 116.06 109.24 93.17 109.24 91.01 112.57" style="fill:#fff"/><polygon points="136.41 130.38 173.3 73.57 156.45 64.26 118.17 123.22 136.41 130.38" style="fill:#fff"/><polygon points="64.83 112.33 43.84 144.66 58.53 177.33 146.84 177.33 166.69 101.01 140.15 141.88 64.83 112.33" style="fill:#fff"/><polygon points="108.45 100.01 108.45 74.81 46.91 74.81 26.7 106.64 38.87 135.06 61.63 100.01 108.45 100.01" style="fill:#fff"/></svg>