<svg id="Layer_1" data-name="Layer 1" xmlns="http://www.w3.org/2000/svg" viewBox="0 0 519.34 262.15"><defs><style>.cls-1{fill:#ff8d00;}</style></defs><title>video</title><path class="cls-1" d="M286.25,27.64c-2.38,7.89-2,13.14,2.19,18.55,2.67,3.44,3.94,8.29,4.81,12.71,2.23,11.32,4.47,22.71,5.56,34.17.69,7.29,2.37,14.23,3.67,21.33,1.54,8.4.67,17.22,1.51,25.78,1.84,18.8.94,37.81,5.74,56.4,2.59,10,3.62,20.61,4.33,31,.72,10.61-3.45,19.85-17.7,17.11-2.6-.5-5.52-.65-7.67-2-10.32-6.33-21.74-5.67-32.84-4.77-27.14,2.19-54.22,5.1-81.3,7.9-27.42,2.84-54.85,5.68-82.21,9a88.08,88.08,0,0,0-21.06,5.57c-6.14,2.39-11.79,2.35-17.27-.6-7.29-3.93-14.77-5.67-23-4.28-10.91,1.84-16.94-5.8-23.21-12.51-1.28-1.36-.93-4.32-1.17-6.56C6,230.25,5.33,224,4.79,217.76c-1.33-15.55-3.31-31.09-3.73-46.67C.23,140.57.22,110,0,79.5c-.06-8.65.23-17.31.6-25.95.11-2.6,1.13-5.16,1.55-7.76.35-2.13,1-4.43.52-6.43-2.36-10-.17-13.58,10.23-13.88a257.57,257.57,0,0,1,28.88.71c33.3,2.78,66.38,2.13,99.41-3.59,14-2.43,28.35-3.14,42.53-4.64a16.4,16.4,0,0,0,3-.44c14.77-4.4,30-4.19,45.17-4.7a156,156,0,0,0,19.82-2.24c10.45-1.7,18.87,1.37,25.82,9.35C280.09,22.91,283.46,25.22,286.25,27.64ZM26.91,50.87c0,3.45-.1,5.42,0,7.38,1.26,22.48,3.65,45,3.52,67.42-.13,21,.33,41.89,2.88,62.65,1.66,13.48,4.81,26.83,8.05,40,1.63,6.66,3.78,7.14,10.31,5.24,2.87-.83,5.71-2,8.63-2.33,26.76-2.84,53.53-5.66,80.31-8.21,30.78-2.94,61.59-5.58,92.38-8.4a119.63,119.63,0,0,0,34.54-8.46c5.6-2.28,8.51-5.17,8.07-11.77-1-15.25-.89-30.58-2-45.82-1.39-19.19-3.6-38.32-5.35-57.49-1.64-18-5.13-35.23-16.51-50.13-2.56-3.35-4.61-5.15-8.75-4.82-10.27.83-20.57,1.3-30.83,2.24-17.87,1.65-36.08,1.91-53.47,5.81-18.09,4-36.33,4.48-54.44,5.67-22.17,1.45-44.54-.24-66.83-.41C34.24,49.47,31,50.31,26.91,50.87Z"/><path class="cls-1" d="M343.77,159.79c-.41-4.64-1-9.27-1.17-13.91-.26-10-.25-19.91-.37-29.87-.14-10.64-.33-21.28-.45-31.93-.06-5.63-1-11.49.2-16.85,2-8.72,7.32-14.42,16.47-17.9,21.68-8.26,42.7-18.23,64.22-26.92,14.45-5.83,29-11,42.8-18.71C477.42-3,490.11-.14,501.07,8.16c1.68,1.27,3.45,3.63,3.54,5.56.27,6.28,1,13-.67,18.81-4.33,14.84-5.79,29.73-5.45,45.12a269.43,269.43,0,0,1-1.85,34.79c-2.53,23.48-.06,46.4,6.35,69,2.33,8.22,4.65,16.41,7.62,24.49,2.77,7.53,4.87,15.49,7.85,23.17,2.85,7.34-1.46,12.68-9.41,12.31-8.15-.38-16-1-24-4.72-12.54-5.86-26.25-9.22-39.47-13.62-18.24-6.07-36.47-12.16-54.74-18.13a54.57,54.57,0,0,0-10.53-2.5c-15.53-1.81-27.81-9-34.57-23.12-2.71-5.66-2.19-12.86-3.15-19.37ZM467.89,37c-4,.86-5.64,1-7.15,1.59-9.28,3.57-18.7,6.83-27.73,11-16.55,7.57-32.92,15.55-49.23,23.63-3.89,1.93-7.09,5-7.59,9.9-.87,8.24-2.06,16.46-2.53,24.72-1,17.57.69,35.08,1.92,52.59.18,2.55.34,5.92,1.93,7.41a101.15,101.15,0,0,0,16.21,12.79c4.75,2.9,10.36,4.42,15.64,6.39,13.35,5,26.65,10.08,40.12,14.69,7.36,2.52,14.93,3.21,22.09-1.77a31.83,31.83,0,0,0,.37-5.09c-.38-4.3-.56-8.68-1.54-12.85-6.56-27.74-8-55.92-7-84.25.41-11.58,1.8-23.13,2.69-34.69C466.7,54.81,467.22,46.62,467.89,37Z"/></svg>
