<svg id="Layer_1" data-name="Layer 1" xmlns="http://www.w3.org/2000/svg" viewBox="0 0 280 75"><defs><style>.cls-1{fill:#eb5b56;}.cls-2{fill:#fff;}</style></defs><title>hardyandhinds</title><rect class="cls-1" width="280" height="75"/><path class="cls-2" d="M50.39,38.77H38.9L36.79,48.4H32.91l4.87-22.08h3.87l-2,9H51.15l2-9H57L52.15,48.4H48.27Z" transform="translate(0.5 0.75)"/><path class="cls-2" d="M71.55,32.41H75l-3.54,16H68l.46-2.12a6.26,6.26,0,0,1-5,2.52c-3.64,0-6.12-2.38-6.12-6.59,0-5,3.08-10.2,8.41-10.2A6.16,6.16,0,0,1,71,34.7ZM64.92,45.72a5.37,5.37,0,0,0,4.17-2.25l1.39-6.19a4.81,4.81,0,0,0-4.2-2.18c-3.15,0-5.3,3.08-5.3,6.42C61,44.1,62.61,45.72,64.92,45.72Z" transform="translate(0.5 0.75)"/><path class="cls-2" d="M79.52,32.41H83l-.53,2.25A7.19,7.19,0,0,1,88.26,32l-.76,3.48a5.91,5.91,0,0,0-1.42-.17,5.79,5.79,0,0,0-4.24,2.22L79.46,48.4H76Z" transform="translate(0.5 0.75)"/><path class="cls-2" d="M103.62,26.32h3.48L102.2,48.4H98.72l.46-2.12a6.26,6.26,0,0,1-5,2.52c-3.64,0-6.12-2.38-6.12-6.59,0-5,3.08-10.2,8.41-10.2a6.16,6.16,0,0,1,5.3,2.68Zm-8,19.4a5.37,5.37,0,0,0,4.17-2.25l1.39-6.19A4.81,4.81,0,0,0,97,35.09c-3.15,0-5.3,3.08-5.3,6.42C91.7,44.1,93.33,45.72,95.64,45.72Z" transform="translate(0.5 0.75)"/><path class="cls-2" d="M107.43,51.75a2.4,2.4,0,0,0,2.15-1.32l1.26-1.92-2.91-16.09h3.61l2,12,7.35-12h3.84L112.79,51.28c-1.62,2.58-3.28,3.61-5.69,3.61a7.89,7.89,0,0,1-2.42-.36l1.16-3A4.3,4.3,0,0,0,107.43,51.75Z" transform="translate(0.5 0.75)"/><path class="cls-2" d="M147.05,44.73c.79,1.16,1.66,2.35,2.68,3.67h-4.2c-.33-.43-.73-.93-1.13-1.49a10.49,10.49,0,0,1-5.76,1.89c-3.87,0-6.92-1.79-6.92-5.69,0-4.27,3.08-6.09,6.39-7.38a11.13,11.13,0,0,1-.66-3.61A6.27,6.27,0,0,1,143.91,26c2.91,0,5.4,1.46,5.4,4.27,0,3.87-3.48,5.2-7,6.46.43.89.93,1.79,1.42,2.65.6,1.06,1.16,2.05,1.75,3A22.7,22.7,0,0,0,148.74,38l2.55,1.56A35.21,35.21,0,0,1,147.05,44.73Zm-4.2,0c-.86-1.26-1.66-2.48-2.09-3.28-.63-1.16-1.23-2.28-1.72-3.38-2,1-3.51,2.28-3.51,4.63S137.22,46,139.17,46A6.84,6.84,0,0,0,142.85,44.69Zm-1.39-10.16c2.58-.89,4.67-1.89,4.67-3.94a1.91,1.91,0,0,0-2.09-2,3.23,3.23,0,0,0-3,3.51A7.59,7.59,0,0,0,141.46,34.53Z" transform="translate(0.5 0.75)"/><path class="cls-2" d="M179.26,38.77H167.78l-2.12,9.63h-3.87l4.87-22.08h3.87l-2,9H180l2-9h3.87L181,48.4h-3.87Z" transform="translate(0.5 0.75)"/><path class="cls-2" d="M189.16,32.41h3.48l-3.54,16h-3.48Zm2.95-6.75a1.9,1.9,0,0,1,2,1.85A2.45,2.45,0,0,1,191.64,30a1.87,1.87,0,0,1-2-1.85A2.45,2.45,0,0,1,192.11,25.66Z" transform="translate(0.5 0.75)"/><path class="cls-2" d="M206.61,38.37a4.76,4.76,0,0,0,.17-1c0-1.62-1.29-2.28-2.68-2.28a6.65,6.65,0,0,0-4.57,2.15L197.07,48.4H193.6l3.54-16h3.48l-.5,2.18A8.07,8.07,0,0,1,205.58,32c3,0,4.9,1.52,4.9,4a9.59,9.59,0,0,1-.17,1.32l-2.45,11h-3.48Z" transform="translate(0.5 0.75)"/><path class="cls-2" d="M228.52,26.32H232L227.1,48.4h-3.48l.46-2.12a6.26,6.26,0,0,1-5,2.52c-3.64,0-6.12-2.38-6.12-6.59,0-5,3.08-10.2,8.41-10.2a6.16,6.16,0,0,1,5.3,2.68Zm-8,19.4a5.37,5.37,0,0,0,4.17-2.25l1.39-6.19a4.81,4.81,0,0,0-4.2-2.18c-3.15,0-5.3,3.08-5.3,6.42C216.6,44.1,218.23,45.72,220.54,45.72Z" transform="translate(0.5 0.75)"/><path class="cls-2" d="M233.06,43.54a7.37,7.37,0,0,0,5.46,2.52c1.79,0,2.88-1,2.88-2.15s-1.49-1.62-3.18-2.22c-2.32-.83-5.06-1.79-5.06-4.47s2.25-5.2,6.36-5.2A8.76,8.76,0,0,1,246,34.63l-1.85,2.28a6.33,6.33,0,0,0-4.73-2.12c-1.79,0-2.81.83-2.81,1.89s1.42,1.46,3.08,2.05c2.35.83,5.2,1.82,5.2,4.6,0,2.95-2.45,5.46-6.65,5.46A9.57,9.57,0,0,1,231,46Z" transform="translate(0.5 0.75)"/></svg>