<svg id="Layer_1" data-name="Layer 1" xmlns="http://www.w3.org/2000/svg" viewBox="0 0 387.48 490.92"><title>media-and-communications</title><defs><style>.cls-1{fill:#fff;}</style></defs><path class="cls-1" d="M128.78,218.82c54.93-7,103.64-12.79,152.23-19.48,19-2.62,37.74-7.25,56.61-10.88,29-5.58,44.72,3.92,46.08,33.23,2.45,53.23,1.91,106.61,2.58,159.93.19,15-.75,30.15.54,45.07,3.49,40.09-6.21,50.31-47.34,50.6-63.28.45-126.59.95-189.84,3-24.1.77-48.24,4.91-72.06,9.18-37,6.64-52.71-9.14-52.4-47.84.47-58.22.15-116.66-4.43-174.64C17.31,223.46,5.58,180.65.09,137.2c-1-8.3,7.59-22.89,15.44-26.46,66.17-30.06,133.18-58.25,200-87,6.91-3,14.9-4.31,20.8-8.59,38.22-27.72,47.73-14.78,71,16.92,15.53,21.19,25.14,47,35.59,71.53,6,14.11-4.24,20.38-16.57,25.39-63.46,25.8-126.66,52.26-189.91,78.61C135.21,208.13,134.64,210.08,128.78,218.82ZM162.11,433c15.28.23,30.56.48,45.84.27,33.93-.46,64.84-10,98.22-16,11.44-2,29.36-13,30.22-21.38a829.14,829.14,0,0,0,3.5-119.71c-.67-16.12-9.83-30.06-33.32-27.6C234.3,256.19,161.82,262,89.32,267c-16.87,1.15-22.14,7.43-21.44,22.69,1.88,40.93,3.72,81.86,5.2,122.8.57,15.89,7.83,21.85,23.78,21.05C118.6,432.41,140.35,432.71,162.11,433ZM121.54,156.22c42.1-8.61,46.3-15.63,35.85-55.07C128.05,107.29,132.49,134.56,121.54,156.22ZM230.77,74.5c-26.13,9.52-20.64,28-21.43,45.5C239,115.68,231.19,95.48,230.77,74.5ZM69.89,146.57l-5.42-3.8c-6.81,5.37-15.08,9.7-19.86,16.49-2.78,4-1,12.16.77,17.85.76,2.51,8,5.86,9.56,4.8a27.28,27.28,0,0,0,9.6-12.16C67.26,162.37,68.2,154.33,69.89,146.57Z"/></svg>
