<svg id="Layer_1" data-name="Layer 1" xmlns="http://www.w3.org/2000/svg" viewBox="0 0 495.78 554.64"><defs><style>.cls-1{fill:#ff8d00;}</style></defs><title>storyboard</title><path class="cls-1" d="M385.72,127.94c-19.4-.9-38.8-1.9-58.21-2.63-4.9-.18-9.86,1-14.76.74-6.85-.3-9.72,3.74-10.7,9.37-1.39,8-2.33,16.08-3.08,24.16-1.69,18.25-3.43,36.51-4.65,54.8-1.93,29.06-4.55,58.13-2.4,87.31.57,7.7,2,15.37,2,23.05a22.26,22.26,0,0,1-4,11.64c-4,5.93-10.69,6.72-16.77,2.83C265.08,334,261,326.5,261.24,317c.41-16.89,1.05-33.79,1.83-50.67.44-9.48,1.19-18.95,2.08-28.39,1.65-17.5,3.52-35,5.28-52.46,1.09-10.83,2.54-21.64,3.15-32.49,1-17.24,1.2-34.52,2.12-51.77a9.76,9.76,0,0,1,3.81-6.72A181.83,181.83,0,0,1,298.81,83.7a17.36,17.36,0,0,1,16-.3c6.53,2.9,14.43,3.35,21.78,3.67,28.22,1.22,56.46,2.07,84.7,2.83,12,.32,24,.14,36,.09,3.88,0,7.76-.44,11.63-.46,4.41,0,9.63-1.27,13.06.62,6.09,3.36,12,8.5,13.1,15.86,1.13,7.85.52,16,.38,24-.05,2.77-1.61,5.55-1.44,8.27,1.8,29.76-3.62,59-5.46,88.56-1.46,23.51-1.16,47.14-1.39,70.72-.11,12,0,23.94.65,35.87.81,14.31,1.82,28.65,3.7,42.85s-12,23.85-21.31,19.57c-19.33-8.89-39.6-6.25-59.37-6.3-34.49-.09-69,2.12-103.47,3.4-2.46.09-4.93.4-7.38.7-13,1.59-19.76-4.14-20.19-17.43-.15-4.73-.89-9.15,2.82-13.89,5.06-6.46,9.93-9.56,18.49-9,17.6,1.19,35.3,1.68,52.93,1.37,19.4-.34,38.77-2.09,58.17-2.83,10.92-.41,21.86,0,32.8,0,2.8,0,5.71.15,8.36-.54,4.41-1.15,7.58-3.89,7.41-9-.12-3.5-.62-7-.84-10.49-.26-4.22-.68-8.46-.56-12.67.79-28.5,1.11-57,2.82-85.49,1-16.67,4.91-33.15,6.33-49.82a294,294,0,0,0,.65-42.08c-.66-11.28-2.93-13-14.68-13.44-14.44-.57-28.93,0-43.4,0-8.47,0-16.94,0-25.41,0Q385.72,128.15,385.72,127.94Z"/><path class="cls-1" d="M217.69,49.51c-.67,15.8-1.82,31.6-1.92,47.4-.19,30.26.07,60.53.45,90.79.17,13,1.28,25.69,5,38.44,2.62,9,4.61,19.12-.46,28.75-4.74,9-8.53,11.13-18.39,9.08-11.13-2.32-22.16-3-33.51-.38-7.82,1.83-16.07,1.83-24.14,2.5-24.89,2.08-49.8,4-74.69,6.2a27.9,27.9,0,0,0-8.95,2.54c-17.11,7.82-32.17-1.4-33.92-19.44-.58-6-1.87-7.35-7.53-8.46-8.91-1.75-19.78-8-19.62-21.42.18-15.39,1.39-30.77,2.35-46.14.35-5.62,1.09-11.22,1.93-16.79,3.5-23.31,7.86-46.53,10.34-69.95,1.12-10.54,2.58-21.38-.87-32.4-1.81-5.78.27-13.19,2-19.48.73-2.7,4.67-5.64,7.68-6.43,11.54-3,23.18-6.43,35-7.51C100.89,22.93,143.47,20,186,16.57a40.89,40.89,0,0,0,7.13-1.72c11.09-3,20.46,2.54,23,13.78,1,4.45,1.73,9,2.32,13.52a58.22,58.22,0,0,1,.06,7.39ZM32.9,230c5.59.4,10-.14,13.78,1.14,13.44,4.52,27,4.32,40.76,2.54,11.54-1.49,23.16-2.24,34.74-3.45,16.84-1.77,33.72-3.28,50.49-5.6,13.2-1.83,15.18-4.7,15.81-17.88.47-9.81,1.24-19.6,1.63-29.42.4-10-2.23-19.73-1.4-30,1.6-19.85.88-39.89,1.29-59.84.11-5.61.74-11.21,1.21-16.81,1-12-1.82-15.3-13.82-15.25-40.2.16-80.24,3-120.18,7.39-11.74,1.28-15,4.76-16.12,16.87-.57,5.91.78,12,.11,17.92-1.67,14.61-4.47,29.09-6,43.71-2.18,21-4.11,42.1-5.14,63.2C29.66,213,31.9,221.71,32.9,230Z"/><path class="cls-1" d="M19.21,519.18c.67-15.8,1.82-31.6,1.92-47.4.19-30.26-.07-60.53-.45-90.79-.17-13-1.28-25.69-5-38.44-2.62-9-4.61-19.12.46-28.75,4.74-9,8.53-11.13,18.39-9.08,11.13,2.32,22.16,3,33.51.38,7.82-1.83,16.07-1.83,24.14-2.5,24.89-2.08,49.8-4,74.69-6.2a27.9,27.9,0,0,0,8.95-2.54c17.11-7.82,32.17,1.4,33.92,19.44.58,6,1.87,7.35,7.53,8.46,8.91,1.75,19.78,8,19.62,21.42-.18,15.39-1.39,30.77-2.35,46.14-.35,5.62-1.09,11.22-1.93,16.79-3.5,23.31-7.86,46.53-10.34,69.95-1.12,10.54-2.58,21.38.87,32.4,1.81,5.78-.27,13.19-2,19.48-.73,2.7-4.67,5.64-7.68,6.43-11.54,3-23.18,6.43-35,7.51-42.5,3.88-85.09,6.85-127.63,10.24a40.89,40.89,0,0,0-7.13,1.72c-11.09,3-20.46-2.54-23-13.78-1-4.45-1.73-9-2.32-13.52a58.22,58.22,0,0,1-.06-7.39ZM204,338.68c-5.59-.4-10,.14-13.78-1.14-13.44-4.52-27-4.32-40.76-2.54-11.54,1.49-23.16,2.24-34.74,3.45-16.84,1.77-33.72,3.28-50.49,5.6-13.2,1.83-15.18,4.7-15.81,17.88-.47,9.81-1.24,19.6-1.63,29.42-.4,10,2.23,19.73,1.4,30-1.6,19.85-.88,39.89-1.29,59.84-.11,5.61-.74,11.21-1.21,16.81-1,12,1.82,15.3,13.82,15.25,40.2-.16,80.24-3,120.18-7.39,11.74-1.28,15-4.76,16.12-16.87.57-5.91-.78-12-.11-17.92,1.67-14.61,4.47-29.09,6-43.71,2.18-21,4.11-42.1,5.14-63.2C207.24,355.66,205,347,204,338.68Z"/><path class="cls-1" d="M344.71,228.49c3.4-19,22.92-27,36.22-16.39,3.38,2.69,4.52,5.77,3.58,10.94-2.43,13.38-8.88,24.52-16.25,35.43-.93,1.38-1.69,2.87-2.8,4.77,7.53,4.27,15.53,2.69,22.92,4.2,2.39.49,5,0,7.34.66,4.38,1.22,7.37,4.1,7.43,8.94.06,5.19-2.89,8.31-8.39,9.08a32.94,32.94,0,0,1-6.33.14,93.08,93.08,0,0,0-40,6.69c-9.56,3.81-14.58.65-15.32-9.8-.6-8.44,2.68-13.9,8.1-19.42a261.66,261.66,0,0,0,19.56-21.82c5.15-6.57,2.13-11.95-6.22-12.46C351.56,229.26,348.54,228.87,344.71,228.49Z"/><path class="cls-1" d="M81.55,153.13c-1.76-1.61-3.67-3.15-5.34-4.93-7.52-8-7.22-7.86-1.67-17.79,2.42-4.33,4.45-7.68,9.8-9.48,3.87-1.31,6.34-6.37,9.82-9.31,5-4.24,9.71-9,17.46-8.19,4.4.48,7.39,2.14,9.28,5.79,4.61,8.9,5.81,18.57,1.51,27.49-6.52,13.51-5.82,27.37-3.31,41.11,1.33,7.3.67,13.95-.77,20.8a8.8,8.8,0,0,1-9.12,7.29c-2.24-.1-5.74-3.47-6.23-5.86-1.44-7.06-1.64-14.38-2.35-21.59-.78-7.94-1.32-15.92-2.64-23.76-.24-1.4-3.72-3.11-5.75-3.18C88.8,151.41,85.34,152.5,81.55,153.13Z"/><path class="cls-1" d="M140.41,430.37c-5.79-2-11.64-.67-17.5.13-3.09.43-6.32,1.08-9.34.63-5.08-.74-7.34-4.07-5.93-9.09,1.49-5.3,3.95-10.32,6.33-16.35a14.47,14.47,0,0,0-2.21-1.53c-7.54-4-9.09-14.11-1.93-18.43,8.06-4.87,17.09-8.39,27-6,10.77,2.58,14.76,7.58,14.67,18.6,0,3.12-.63,6.23-1,9.75,2,1.41,4.11,2.63,5.92,4.19,5.31,4.56,9.07,9.7,6.36,17.35a26.88,26.88,0,0,0-1,7.27c-1.19,19.53-21,28.22-35.4,30-8,1-15-4.08-20-10-2-2.44-1.27-7.93-.47-11.77.83-4,4.71-4.55,8.53-4.44,6.33.18,12.71.52,19-.05S140.53,438.38,140.41,430.37Z"/><path class="cls-1" d="M253.93,38.79a8.76,8.76,0,0,0,2.32.31h0A9.13,9.13,0,0,0,265,32.48a7.53,7.53,0,0,1,3.68-4.94A9,9,0,0,0,264,10.8,8.76,8.76,0,0,0,259.55,12a26.06,26.06,0,0,0-11.91,15.72A9,9,0,0,0,253.93,38.79Z"/><path class="cls-1" d="M288,19.6h0a9.63,9.63,0,0,0,2.29-.28,45.7,45.7,0,0,1,11-1.32c1.44,0,2.92.06,4.42.19.29,0,.57,0,.84,0,4.6,0,8-3.34,8.16-8.11a9.31,9.31,0,0,0-8.5-9.9C304.62.07,302.92,0,301.23,0a65.18,65.18,0,0,0-15.51,1.92,8.34,8.34,0,0,0-6.49,9.44C279.72,15.45,282.91,19.6,288,19.6Z"/><path class="cls-1" d="M324.94,19.37a54.12,54.12,0,0,1,15.7,5.15,9.15,9.15,0,0,0,4.21,1.05h0a9.49,9.49,0,0,0,9-7.35,8.07,8.07,0,0,0-4.4-9.4,71.14,71.14,0,0,0-20.28-6.94,10.91,10.91,0,0,0-1.87-.16,8.92,8.92,0,0,0-8.92,6.51,9.43,9.43,0,0,0,1.21,7.41A8,8,0,0,0,324.94,19.37Z"/><path class="cls-1" d="M350.81,28.54A9.38,9.38,0,0,0,350,35.9,8.13,8.13,0,0,0,354.25,41a17.27,17.27,0,0,1,8.54,8.49,8.58,8.58,0,0,0,7.89,4.61,9,9,0,0,0,4.53-1.19c4.17-2.44,5.57-7.53,3.33-12.11A33.81,33.81,0,0,0,362.91,25.2a10.22,10.22,0,0,0-4.4-1A8.81,8.81,0,0,0,350.81,28.54Z"/><path class="cls-1" d="M399,38.52a9.71,9.71,0,0,0-7.61-3.66A8.43,8.43,0,0,0,383,41.31l-5.24,19.12-.05.17c-.81-.45-1.64-.87-2.44-1.26s-1.43-.7-1.9-1l-11.9-7.15a8.8,8.8,0,0,0-4.57-1.32,9.13,9.13,0,0,0-8.55,6.92,8.53,8.53,0,0,0,4,9.91l17.28,10.38c3.38,2,7.21,4.33,11.48,4.33a11.62,11.62,0,0,0,6.68-2.14c4.48-3.08,5.84-8.3,6.93-12.5.14-.54.28-1.06.42-1.58l5.24-19.11A8.49,8.49,0,0,0,399,38.52Z"/><path class="cls-1" d="M367.54,403.85c-4.47,0-9,3-9,8.8v16.5c0,5.77,4.53,8.8,9,8.8h0a9.3,9.3,0,0,0,6.08-2.17,8.56,8.56,0,0,0,2.92-6.62v-16.5C376.54,406.87,372,403.85,367.54,403.85Z"/><path class="cls-1" d="M358.3,445.87a8.86,8.86,0,0,0-7.46,4.08,49.76,49.76,0,0,1-13.45,13.65,9.05,9.05,0,0,0-3.57,10.33,8.81,8.81,0,0,0,8.19,6.55h0a8.46,8.46,0,0,0,4.82-1.57,71.52,71.52,0,0,0,19.37-19.59,8.09,8.09,0,0,0,.57-8.51A9.79,9.79,0,0,0,358.3,445.87Z"/><path class="cls-1" d="M320.86,472.87a8.86,8.86,0,0,0-6,2.39,24.33,24.33,0,0,1-15,6.32,9.15,9.15,0,0,0-8.59,9.65,8.24,8.24,0,0,0,8.34,8.35h0l.61,0a43.42,43.42,0,0,0,27.15-11.37A8.11,8.11,0,0,0,329.7,479,9.7,9.7,0,0,0,320.86,472.87Z"/><path class="cls-1" d="M284.55,507.3a78.25,78.25,0,0,1-15-6.15H270c5.77,0,8.8-4.53,8.8-9a9.3,9.3,0,0,0-2.17-6.08,8.56,8.56,0,0,0-6.62-2.92h-3.62c1.1-1,2.22-1.92,3.41-2.89a7.76,7.76,0,0,0,2.69-8.87,9.94,9.94,0,0,0-9.14-6.38,9.16,9.16,0,0,0-5.82,2.11l-.43.35c-6.93,5.62-17.4,14.11-18.4,24a15.73,15.73,0,0,0,3.87,11.83c9.3,11.35,25.28,17.86,37.05,21.33a9.4,9.4,0,0,0,2.66.4h0a8.78,8.78,0,0,0,8.49-7.84A8.66,8.66,0,0,0,284.55,507.3Z"/></svg>
