<?xml version="1.0" encoding="utf-8"?>
<!-- Generator: Adobe Illustrator 26.2.1, SVG Export Plug-In . SVG Version: 6.00 Build 0)  -->
<svg version="1.1" id="Layer_1" xmlns="http://www.w3.org/2000/svg" xmlns:xlink="http://www.w3.org/1999/xlink" x="0px" y="0px"
	 viewBox="0 0 100 100" style="enable-background:new 0 0 100 100;" xml:space="preserve">
<style type="text/css">
	.st0{fill:#DBDBDB;}
	.st1{fill:#A6D9E3;}
</style>
<circle class="st0" cx="50" cy="50" r="45"/>
<g>
	<g id="XMLID_00000029032701419691210060000000228997300874286782_">
		<g>
			<path class="st1" d="M50,16.1c6.4,0,11.6,5.2,11.6,11.6S56.4,39.4,50,39.4s-11.6-5.2-11.6-11.6S43.6,16.1,50,16.1z M56.7,27.7
				c0-3.7-3-6.7-6.7-6.7s-6.7,3-6.7,6.7s3,6.7,6.7,6.7S56.7,31.4,56.7,27.7z"/>
			<path d="M84.6,61.1c0.6,1.2,0.1,2.6-1.2,3.2c-1.5,0.8-3,1.5-4.6,2.2l2.7,5.7c0.2,0.3,0.2,0.7,0.2,1l-1.4,22.4
				c-0.1,1-0.8,1.7-1.7,1.9h-0.4c-0.7,0-1.5-0.5-1.8-1.2L64.6,71c-4,0.8-8.1,1.3-12.2,1.4v3.5c0,1.3-1.1,2.4-2.4,2.4
				s-2.4-1.1-2.4-2.4v-3.5c-4.1-0.1-8.2-0.6-12.2-1.4L23.6,96.2c-0.3,0.8-1,1.2-1.8,1.2h-0.4c-1-0.2-1.6-1-1.7-1.9l-1.4-22.4
				c0-0.4,0.1-0.7,0.2-1l2.7-5.7c-1.6-0.7-3.2-1.4-4.7-2.2c-1.2-0.6-1.6-2-1-3.2s2-1.6,3.2-1c1.5,0.8,3,1.5,4.5,2.1l12.6-27.5
				c-1-2.1-1.6-4.4-1.6-6.9c0-6.1,3.5-11.4,8.7-14V9.5c0-3.9,3.2-7,7-7c3.9,0,7,3.1,7,7v4.3c5.1,2.5,8.7,7.9,8.7,14
				c0,2.5-0.6,4.8-1.6,6.9l12.9,27.5c1.5-0.6,3-1.3,4.5-2.1C82.5,59.5,84,59.9,84.6,61.1z M77.6,73.5L75.1,68
				c-2.2,0.8-4.3,1.4-6.5,2l8.1,17.4L77.6,73.5z M73,63.6L61.3,38.5c-1.5,1.7-3.5,3-5.6,3.8l10.8,23.3C68.7,65,70.9,64.4,73,63.6z
				 M62.5,66.6L51.7,43.4c-0.6,0.1-1.1,0.1-1.7,0.1s-1.1,0-1.7-0.1L37.5,66.6c3.3,0.6,6.7,1,10.1,1.1v-3.4c0-1.3,1.1-2.4,2.4-2.4
				s2.4,1.1,2.4,2.4v3.4C55.8,67.5,59.2,67.2,62.5,66.6z M61.6,27.7c0-6.4-5.2-11.6-11.6-11.6s-11.6,5.3-11.6,11.7
				S43.6,39.4,50,39.4S61.6,34.1,61.6,27.7z M52.9,12.4V9.5c0-1.6-1.3-2.9-2.9-2.9s-2.9,1.3-2.9,2.9v2.9c0.9-0.2,1.9-0.3,2.9-0.3
				S52,12.2,52.9,12.4z M33.4,65.7l10.8-23.3c-2.1-0.9-4-2.2-5.6-3.8L26.9,63.7C29.1,64.5,31.2,65.2,33.4,65.7z M23.3,87.4l8-17.4
				c-2.1-0.6-4.3-1.2-6.4-2l-2.5,5.5L23.3,87.4z"/>
			<path d="M50,21c3.7,0,6.7,3,6.7,6.7s-3,6.7-6.7,6.7s-6.7-3-6.7-6.7S46.3,21,50,21z M52.6,27.7c0-1.4-1.2-2.6-2.6-2.6
				s-2.6,1.2-2.6,2.6c0,1.4,1.2,2.6,2.6,2.6S52.6,29.1,52.6,27.7z"/>
		</g>
		<g>
		</g>
	</g>
</g>
</svg>
