<?xml version="1.0" encoding="utf-8"?>
<!-- Generator: Adobe Illustrator 26.2.1, SVG Export Plug-In . SVG Version: 6.00 Build 0)  -->
<svg version="1.1" id="Layer_1" xmlns="http://www.w3.org/2000/svg" xmlns:xlink="http://www.w3.org/1999/xlink" x="0px" y="0px"
	 viewBox="0 0 100 100" style="enable-background:new 0 0 100 100;" xml:space="preserve">
<style type="text/css">
	.st0{fill:#DBDBDB;}
	.st1{fill:#A6D9E3;}
</style>
<circle class="st0" cx="50" cy="50" r="45"/>
<g>
	<g id="XMLID_00000104693041906921092500000003447453421527264128_">
		<g>
			<path class="st1" d="M74.6,29.8v16h-6.3v-7.2c0-0.7-0.3-1.3-0.7-1.8c-0.5-0.5-1.1-0.7-1.8-0.7H48.8v-6.3H74.6z"/>
			<path d="M92.6,24.1l0.2,63.6c0,6.2-5.1,11.3-11.3,11.3h-6c-0.7,0-1.3-0.3-1.8-0.7c-0.5-0.5-0.7-1.1-0.7-1.8V81.4H18.5
				c-6.2,0-11.3-5.1-11.3-11.3V11.9C7.2,5.9,12.1,1,18.1,1h6.4c0.7,0,1.3,0.2,1.8,0.7C26.7,2.2,27,2.8,27,3.5v9.7h54.7
				C87.8,13.2,92.6,18.1,92.6,24.1z M87.8,78.3l-0.1-54.2c0-3.2-2.7-5.9-5.9-5.9H27v43.1c0,0.7-0.3,1.3-0.7,1.8
				c-0.5,0.5-1.1,0.7-1.8,0.7h-6c-3.5,0-6.3,2.8-6.3,6.3c0,3.5,2.8,6.3,6.3,6.3l63,0C83.7,76.4,85.9,77.1,87.8,78.3z M87.8,87.7
				c0-3.5-2.8-6.3-6.3-6.3H78V94h3.5C85,94,87.8,91.2,87.8,87.7z M22,58.8V6h-3.9c-3.3,0-5.9,2.6-5.9,5.9l0,48.8
				c1.9-1.2,4.1-1.9,6.3-1.9H22z"/>
			<path d="M79.6,27.2v21c0,0.7-0.3,1.3-0.7,1.8c-0.5,0.5-1.1,0.7-1.8,0.7H65.8c-0.7,0-1.3-0.3-1.8-0.7s-0.7-1.1-0.7-1.8v-7.2H46.3
				c-0.7,0-1.3-0.3-1.8-0.7c-0.5-0.5-0.7-1.1-0.7-1.8V27.2c0-1.4,1.1-2.5,2.5-2.5h30.8c0.7,0,1.3,0.3,1.8,0.7
				C79.3,26,79.6,26.6,79.6,27.2z M74.6,45.8v-16H48.8v6.3h16.9c0.7,0,1.3,0.3,1.8,0.7c0.5,0.5,0.7,1.1,0.7,1.8v7.2H74.6z"/>
			<path d="M63.3,58.1c0-3.3,5-3.3,5,0C68.3,61.4,63.3,61.4,63.3,58.1z"/>
			<path d="M63.3,67.8c0-3.3,5-3.3,5,0C68.3,71.2,63.3,71.2,63.3,67.8z"/>
			<path d="M53.5,67.8c0-3.3,5-3.3,5,0C58.5,71.2,53.5,71.2,53.5,67.8z"/>
			<path d="M43.8,67.8c0-3.3,5-3.3,5,0C48.8,71.2,43.8,71.2,43.8,67.8z"/>
			<path d="M34,48.3c0-3.3,5-3.3,5,0C39,51.7,34,51.7,34,48.3z"/>
			<path d="M34,58.1c0-3.3,5-3.3,5,0C39,61.4,34,61.4,34,58.1z"/>
			<path d="M34,38.6c0-3.3,5-3.3,5,0C39,41.9,34,41.9,34,38.6z"/>
			<path d="M34,67.8c0-3.3,5-3.3,5,0C39,71.2,34,71.2,34,67.8z"/>
		</g>
		<g>
		</g>
	</g>
</g>
</svg>
