<?xml version="1.0" encoding="utf-8"?>
<!-- Generator: Adobe Illustrator 26.2.1, SVG Export Plug-In . SVG Version: 6.00 Build 0)  -->
<svg version="1.1" id="Layer_1" xmlns="http://www.w3.org/2000/svg" xmlns:xlink="http://www.w3.org/1999/xlink" x="0px" y="0px"
	 viewBox="0 0 100 100" style="enable-background:new 0 0 100 100;" xml:space="preserve">
<style type="text/css">
	.st0{fill:#DBDBDB;}
	.st1{fill:#A6D9E3;}
</style>
<circle class="st0" cx="50" cy="50" r="45"/>
<g id="XMLID_00000013899480212934090450000008557245057256628366_">
	<g>
		<path class="st1" d="M47.1,33.3L33.3,47.1l-20-20l13.7-13.7l5.4,5.4l-6.9,6.9c-2,2,1,4.9,2.9,2.9l6.9-6.8l5.4,5.4l-2.7,2.7
			c-2,2,1,4.9,3,2.9l2.7-2.7L47.1,33.3z"/>
		<path class="st1" d="M82.5,68.8L68.8,82.5l-20-20l13.7-13.7l3.3,3.3L59,59c-2,2,1,4.9,2.9,2.9l6.9-6.9l5.4,5.4l-2.7,2.7
			c-2,2,1,4.9,2.9,2.9l2.7-2.7L82.5,68.8z"/>
		<path class="st1" d="M82.7,19.7c0.8,0.8,0.8,2.1,0,3l-5.6,5.6l-9.6-9.6l5.6-5.6c0.8-0.8,2.1-0.8,2.9,0L82.7,19.7z"/>
		<path d="M86.9,67.3c0.8,0.8,0.8,2.1,0,2.9L70.2,86.9c-0.8,0.8-2.1,0.8-2.9,0L45.8,65.4L32.7,78.6L32,79l-20.8,8.3
			c-1.7,0.7-3.4-1-2.7-2.7l8.3-20.8l0.5-0.7L30.4,50L8.9,28.6c-0.8-0.8-0.8-2.1,0-2.9L25.6,8.9c0.8-0.8,2.1-0.8,2.9,0L50,30.4
			l20.2-20.2c2.4-2.4,6.4-2.4,8.8,0l6.6,6.6c2.4,2.4,2.4,6.4,0,8.8L65.4,45.8L86.9,67.3z M82.7,22.7c0.8-0.8,0.8-2.1,0-3l-6.6-6.6
			c-0.8-0.8-2.1-0.8-2.9,0l-5.6,5.6l9.6,9.6L82.7,22.7z M68.8,82.5l13.7-13.7l-5.4-5.4l-2.7,2.7c-2,2-4.9-1-2.9-2.9l2.7-2.7L68.8,55
			l-6.9,6.9c-2,2-4.9-1-2.9-2.9l6.9-6.9l-3.3-3.3L48.8,62.5L68.8,82.5z M31.2,74.1l42.9-42.9l-9.6-9.5L21.7,64.6L31.2,74.1z
			 M33.3,47.1l13.7-13.7L43.8,30l-2.7,2.7c-2,2-4.9-1-3-2.9l2.7-2.7l-5.4-5.4l-6.9,6.8c-2,2-4.9-1-2.9-2.9l6.9-6.9l-5.4-5.4
			L13.4,27.1L33.3,47.1z M27.5,76.3l-8-8l-5.4,13.4L27.5,76.3z"/>
	</g>
	<g>
	</g>
</g>
</svg>
