<?xml version="1.0" encoding="utf-8"?>
<!-- Generator: Adobe Illustrator 26.2.1, SVG Export Plug-In . SVG Version: 6.00 Build 0)  -->
<svg version="1.1" id="Layer_1" xmlns="http://www.w3.org/2000/svg" xmlns:xlink="http://www.w3.org/1999/xlink" x="0px" y="0px"
	 viewBox="0 0 100 100" style="enable-background:new 0 0 100 100;" xml:space="preserve">
<style type="text/css">
	.st0{fill:#DBDBDB;}
	.st1{fill:#A6D9E3;}
</style>
<circle class="st0" cx="50" cy="50" r="45"/>
<g>
	<g id="XMLID_00000089566071547473371490000010780481619726202005_">
		<g>
			<path class="st1" d="M90.6,19.9l0,35.2c0,5.8-4.7,10.5-10.5,10.5H52.3c-1.1,0-2.1,0.6-2.7,1.6c-5,8.5-14.3,11.9-21.9,13.2
				c3-3,5.3-6.6,6.8-10.5c0.4-1,0.3-2.1-0.3-2.9c-0.6-0.9-1.6-1.4-2.6-1.4H19.9c-5.8,0-10.5-4.7-10.5-10.5V19.9
				c0-5.8,4.7-10.5,10.5-10.6h60.2C85.9,9.4,90.6,14.1,90.6,19.9z M74.1,33.5c1.2-1.2,1.2-3.2,0-4.4c-1.2-1.2-3.2-1.2-4.4,0l-4,4
				l-4-4c-1.2-1.2-3.2-1.2-4.4,0c-1.2,1.2-1.2,3.1,0,4.4l4,4l-4,4h0c-0.6,0.6-0.9,1.4-1,2.2c0,0.8,0.3,1.7,0.9,2.2
				c0.6,0.6,1.4,0.9,2.2,0.9c0.8,0,1.6-0.3,2.2-1l4-4l4,4c0.6,0.6,1.4,0.9,2.2,0.9c0.8,0,1.6-0.3,2.2-0.9c1.2-1.2,1.2-3.1,0-4.4
				l-4-4L74.1,33.5L74.1,33.5z M46,33.5c1.2-1.2,1.2-3.2,0-4.4c-1.2-1.2-3.1-1.2-4.4,0L31.2,39.3l-4-4c-0.6-0.6-1.4-1-2.2-1
				c-0.8,0-1.6,0.3-2.2,0.9s-0.9,1.4-0.9,2.2c0,0.8,0.4,1.6,1,2.2L29,46c1.2,1.2,3.2,1.2,4.4,0L46,33.5z"/>
			<path d="M96.9,19.9v35.2c0,4.4-1.8,8.7-4.9,11.9c-3.1,3.2-7.4,4.9-11.9,4.9h-26C44.6,86,26,87.5,18.5,87.5c-1.8,0-3-0.1-3.2-0.1
				c-1.5-0.1-2.7-1.3-2.8-2.7c-0.2-1.5,0.7-2.9,2.1-3.3c5-1.6,9.2-5,12-9.4h-6.7c-4.4,0-8.7-1.8-11.9-4.9c-3.2-3.1-4.9-7.4-4.9-11.9
				V19.9c0-4.5,1.8-8.7,4.9-11.9s7.4-4.9,11.9-4.9h60.2c4.5,0,8.7,1.8,11.9,4.9C95.1,11.2,96.9,15.5,96.9,19.9z M90.6,55.1l0-35.2
				c0-5.8-4.7-10.5-10.5-10.6H19.9c-5.8,0-10.5,4.7-10.5,10.6v35.2c0,5.8,4.7,10.5,10.5,10.5h11.8c1,0,2,0.5,2.6,1.4
				c0.6,0.9,0.7,2,0.3,2.9c-1.5,3.9-3.9,7.5-6.8,10.5c7.6-1.3,16.9-4.7,21.9-13.2c0.6-1,1.6-1.6,2.7-1.6h27.7
				C85.9,65.6,90.6,60.9,90.6,55.1z"/>
			<path d="M74.1,29c1.2,1.2,1.2,3.2,0,4.4h0l-4,4l4,4c1.2,1.2,1.2,3.2,0,4.4c-0.6,0.6-1.4,0.9-2.2,0.9c-0.8,0-1.6-0.3-2.2-0.9l-4-4
				l-4,4c-0.6,0.6-1.4,1-2.2,1c-0.8,0-1.6-0.3-2.2-0.9c-0.6-0.6-0.9-1.4-0.9-2.2c0-0.8,0.4-1.6,1-2.2h0l4-4l-4-4
				c-1.2-1.2-1.2-3.2,0-4.4c1.2-1.2,3.2-1.2,4.4,0l4,4l4-4C70.9,27.8,72.9,27.8,74.1,29z"/>
			<path d="M45.9,29.1c1.2,1.2,1.2,3.1,0,4.4L33.5,46c-1.2,1.2-3.2,1.2-4.4,0l-6.2-6.2c-0.6-0.6-1-1.4-1-2.2c0-0.8,0.3-1.7,0.9-2.2
				s1.4-0.9,2.2-0.9c0.8,0,1.6,0.3,2.2,1l4,4L41.5,29C42.8,27.9,44.7,27.9,45.9,29.1z"/>
		</g>
		<g>
		</g>
	</g>
</g>
</svg>
