<?xml version="1.0" encoding="utf-8"?>
<!-- Generator: Adobe Illustrator 26.2.1, SVG Export Plug-In . SVG Version: 6.00 Build 0)  -->
<svg version="1.1" id="Layer_1" xmlns="http://www.w3.org/2000/svg" xmlns:xlink="http://www.w3.org/1999/xlink" x="0px" y="0px"
	 viewBox="0 0 100 100" style="enable-background:new 0 0 100 100;" xml:space="preserve">
<style type="text/css">
	.st0{fill:#DBDBDB;}
	.st1{fill:#A6D9E3;}
</style>
<circle class="st0" cx="50" cy="50" r="45"/>
<g id="XMLID_00000007408129552160025940000011705553954754268034_">
	<g>
		<rect x="10.4" y="63.2" class="st1" width="22.9" height="15.8"/>
		<rect x="38.6" y="63.2" class="st1" width="22.9" height="15.8"/>
		<rect x="66.7" y="63.2" class="st1" width="22.9" height="15.8"/>
		<path d="M94.8,60.5v21.1c0,0.8-0.3,1.4-0.8,1.9c-0.5,0.5-1.1,0.8-1.8,0.8H64.1h0H35.9H7.8c-1.5,0-2.6-1.2-2.6-2.6V60.5
			c0-1.5,1.2-2.6,2.6-2.6h11.5V39.5c0-1.5,1.2-2.6,2.6-2.6h11.4V18.4c0-1.5,1.2-2.6,2.6-2.6H64c1.5,0,2.6,1.2,2.6,2.6v18.5h11.5
			c1.5,0,2.6,1.2,2.6,2.6v18.4h11.5C93.7,57.9,94.8,59.1,94.8,60.5z M89.6,79V63.2H66.7V79H89.6z M75.5,57.9V42.1H64.1c0,0,0,0,0,0
			H52.6v15.8H75.5z M61.5,79V63.2H38.6V79H61.5z M61.5,36.8V21H38.6v15.8H61.5z M47.4,57.9V42.1H35.9h0H24.5v15.8H47.4z M33.3,79
			V63.2H10.4V79H33.3z"/>
	</g>
	<g>
	</g>
</g>
</svg>
