<?xml version="1.0" encoding="utf-8"?>
<!-- Generator: Adobe Illustrator 26.2.1, SVG Export Plug-In . SVG Version: 6.00 Build 0)  -->
<svg version="1.1" id="Layer_1" xmlns="http://www.w3.org/2000/svg" xmlns:xlink="http://www.w3.org/1999/xlink" x="0px" y="0px"
	 viewBox="0 0 100 100" style="enable-background:new 0 0 100 100;" xml:space="preserve">
<style type="text/css">
	.st0{fill:#DBDBDB;}
	.st1{fill:#A6D9E3;}
</style>
<circle class="st0" cx="50" cy="50" r="45"/>
<g>
	<g id="XMLID_00000017479097415380284600000018006774405316279213_">
		<g>
			<path class="st1" d="M28.7,53.5c1.3,0,2.4,0.9,2.4,2.2c-0.1,0.6-0.2,1.2-0.7,1.6c-0.4,0.5-1,0.7-1.6,0.7c-1.2,0-2.3-1-2.3-2.3
				S27.4,53.5,28.7,53.5z"/>
			<path class="st1" d="M36.4,38.8c0,2.3-1.9,4.1-3.6,5.6L32,45.1c-0.7,0.6-1.4,1.2-1.5,2.3c-0.1,0.8-0.1,1.6-0.1,2.4
				c0,0.1,0,0.3-0.1,0.4c0,0-0.1,0.1-0.4,0.1h-0.5h-0.9h-1.7c-0.2,0-0.3-0.1-0.3-0.3c-0.1-1.7,0-3.7,0.6-5.1c0.5-1,1.3-1.7,2.2-2.3
				c0.7-0.5,1.3-1,1.9-1.7c0.9-1.3,0.8-2.3,0.5-3c-0.5-1-1.7-1.6-3-1.6c-1.7,0-3,1-3.6,2.7c-0.2,0.5-0.2,0.6-0.5,0.6h-0.5
				c-0.9-0.2-1.9-0.2-2.9-0.4c-0.3,0-0.4-0.2-0.4-0.4c0.4-4.1,4.3-6.2,8-6.2c2.1,0,4.1,0.7,5.5,1.9C35.6,35.6,36.4,37.2,36.4,38.8z"
				/>
			<path d="M97.8,45.7c0,1.2,0.3,25.9,0.4,34.1c0,1.1-1.2,1.7-2.1,1.1L80.6,70.1c-4.5,1.7-9.2,2.1-13.9,1.3
				c-5.2-0.9-9.7-3.3-13.3-6.6c0.5-0.6,0.9-1.3,1.4-1.9c0.5-0.8,1-1.6,1.5-2.3c3,3,6.9,5.1,11.3,5.8c3.8,0.7,7.7,0.3,11.2-1l2.5-0.9
				l11.6,8.1c-0.2-11-0.3-25.9-0.3-26.9c0.2-10.9-7.9-20.1-18.7-21.6c-6.7-0.9-13.2,1.6-17.7,6c-0.9-1.5-1.8-3-2.9-4.3
				c5.5-5.1,13.3-7.7,21.3-6.7C88.4,20.8,98.1,32.6,97.8,45.7z"/>
			<path d="M81.6,38c1.1,1,1.1,2.7,0,3.8L70.7,52.7c-0.5,0.5-1.2,0.8-1.9,0.8s-1.4-0.2-1.9-0.9l-5.5-5.5c-1.1-1-1.1-2.7,0-3.8
				c1-1.1,2.7-1.1,3.8,0l3.6,3.6l9.1-9C78.8,36.9,80.6,36.9,81.6,38z"/>
			<path d="M54.5,39.8c3.2,14.7-6.6,29.1-21.2,31.6c-4.7,0.8-9.4,0.3-13.9-1.3L3.9,80.9c-0.9,0.6-2.1,0-2.1-1.1
				c0.1-8.2,0.4-33,0.4-34.1c-0.2-13.1,9.5-24.9,23-26.6C38.8,17.3,51.6,26.3,54.5,39.8z M32.8,44.5c1.7-1.6,3.6-3.3,3.6-5.6
				c0-1.6-0.8-3.2-2.1-4.4c-1.4-1.2-3.4-1.9-5.5-1.9c-3.7,0-7.6,2.1-8,6.2c0,0.2,0.1,0.4,0.4,0.4c1,0.2,2,0.2,2.9,0.4h0.5
				c0.2,0,0.3-0.1,0.5-0.6c0.5-1.7,1.9-2.7,3.6-2.7c1.3,0,2.5,0.6,3,1.6c0.3,0.6,0.5,1.6-0.5,3c-0.5,0.7-1.2,1.2-1.9,1.7
				c-0.9,0.6-1.7,1.3-2.2,2.3c-0.6,1.4-0.7,3.4-0.6,5.1c0,0.2,0.1,0.3,0.3,0.3h1.7h0.9H30c0.3,0,0.4-0.1,0.4-0.1
				c0.1-0.1,0.1-0.2,0.1-0.4c0-0.9,0-1.7,0.1-2.4c0.1-1,0.8-1.6,1.5-2.3L32.8,44.5z M31,55.7c0-1.2-1-2.2-2.4-2.2
				c-1.2,0-2.3,1-2.3,2.3s1,2.3,2.3,2.3c0.6,0,1.2-0.2,1.6-0.7C30.8,57,30.9,56.3,31,55.7z"/>
		</g>
		<g>
		</g>
	</g>
</g>
</svg>
