<?xml version="1.0" encoding="utf-8"?>
<!-- Generator: Adobe Illustrator 26.2.1, SVG Export Plug-In . SVG Version: 6.00 Build 0)  -->
<svg version="1.1" id="Layer_1" xmlns="http://www.w3.org/2000/svg" xmlns:xlink="http://www.w3.org/1999/xlink" x="0px" y="0px"
	 viewBox="0 0 100 100" style="enable-background:new 0 0 100 100;" xml:space="preserve">
<style type="text/css">
	.st0{fill:#DBDBDB;}
	.st1{fill:#A6D9E3;}
</style>
<circle class="st0" cx="50" cy="50" r="45"/>
<g>
	<g id="XMLID_00000169544171577281794000000002238974133380508596_">
		<g>
			<path class="st1" d="M67.1,50c0,8.6-7,15.5-15.5,15.5S36,58.5,36,50c0-8.6,7-15.5,15.5-15.5C60.2,34.4,67.1,41.4,67.1,50z
				 M60.1,47.1c1-1,1-2.6,0-3.6c-0.2-0.2-0.5-0.4-0.8-0.6c-0.3-0.1-0.6-0.2-1-0.2c-0.7,0-1.3,0.3-1.8,0.8l-7.7,7.7l-2.2-1.9
				c-1.1-1-2.7-0.9-3.6,0.2c-0.5,0.5-0.7,1.2-0.6,1.9c0,0.7,0.3,1.3,0.8,1.8l3.5,3.2c0.6,0.5,1.4,0.8,2.1,0.8c0.8,0,1.6-0.3,2.2-0.9
				L60.1,47.1z"/>
			<path d="M99.6,87.9l-7.1,5.8v-2.5c0-0.5-0.4-0.8-0.8-0.8H63.5c1.5-0.5,3-1,4.5-1.6c2.2-0.9,4.3-2,6.3-3.3h17.4
				c0.4,0,0.8-0.4,0.8-0.8v-2.5L99.6,87.9z"/>
			<path d="M88.8,34.4c2.1,5,3.2,10.3,3.2,15.7c0,5.4-1.1,10.7-3.2,15.7c-2,4.8-4.9,9.1-8.6,12.8c-2,2-4.2,3.8-6.5,5.3c0,0,0,0,0,0
				c-2,1.3-4.1,2.4-6.2,3.3c-5,2.1-10.2,3.2-15.7,3.2H0.4v-4.9h26.2l25,0C71.1,85.5,87,69.6,87,50.1c0-19.5-15.9-35.4-35.4-35.4
				c-0.5,0-0.8,0.4-0.8,0.8v2.6l-7.2-5.9l7.2-5.9v2.6c0,0.5,0.4,0.8,0.8,0.8c5.4,0,10.7,1.1,15.7,3.2c4.8,2,9.1,4.9,12.8,8.6
				C83.8,25.3,86.7,29.6,88.8,34.4z"/>
			<path d="M51.6,29.8c11.1,0,20.2,9,20.2,20.2c0,11.1-9,20.2-20.2,20.2c-11.1,0-20.2-9.1-20.2-20.2C31.4,38.8,40.5,29.8,51.6,29.8z
				 M51.6,65.5c8.6,0,15.5-7,15.5-15.5c0-8.6-7-15.5-15.5-15.5C43,34.4,36,41.4,36,50C36,58.5,43,65.5,51.6,65.5z"/>
			<path d="M60.1,43.5c1,1,1,2.6,0,3.6L51,56.2c-0.6,0.6-1.4,0.9-2.2,0.9c-0.8,0-1.5-0.3-2.1-0.8l-3.5-3.2c-0.5-0.5-0.8-1.1-0.8-1.8
				c0-0.7,0.2-1.3,0.6-1.9c1-1,2.6-1.1,3.6-0.2l2.2,1.9l7.7-7.7c0.5-0.5,1.1-0.8,1.8-0.8c0.3,0,0.7,0.1,1,0.2
				C59.6,43.1,59.9,43.3,60.1,43.5z"/>
			<path d="M39.8,83.9H26.9c-1.5-1-3-2.1-4.3-3.2c-4.1-3.5-7.4-7.8-9.8-12.7C10.3,63,8.9,57.8,8.6,52.5C8.3,47.2,9,42.1,10.7,37.1
				s4.3-9.5,7.7-13.4c3.4-3.9,7.4-7.1,12-9.4l2.2,4.4c-17,8.9-23.9,29.8-15.3,47c3,6.1,8,11.2,14.5,14.8C34.2,81.9,37,83,39.8,83.9z
				"/>
		</g>
		<g>
		</g>
	</g>
</g>
</svg>
