<?xml version="1.0" encoding="utf-8"?>
<!-- Generator: Adobe Illustrator 26.2.1, SVG Export Plug-In . SVG Version: 6.00 Build 0)  -->
<svg version="1.1" id="Layer_1" xmlns="http://www.w3.org/2000/svg" xmlns:xlink="http://www.w3.org/1999/xlink" x="0px" y="0px"
	 viewBox="0 0 100 100" style="enable-background:new 0 0 100 100;" xml:space="preserve">
<style type="text/css">
	.st0{fill:#DBDBDB;}
	.st1{fill:#A6D9E3;}
</style>
<circle class="st0" cx="50" cy="50" r="45"/>
<g id="XMLID_00000117648938756862422240000014132866905920929957_">
	<g>
		<path class="st1" d="M18.8,84.4c0,0.8-0.3,1.6-0.9,2.2c-0.6,0.6-1.4,0.9-2.2,0.9h0c-1.3,0-2.4-0.8-2.9-1.9
			c-0.5-1.2-0.2-2.5,0.7-3.4c0.9-0.9,2.2-1.2,3.4-0.7C18,82,18.8,83.1,18.8,84.4z"/>
		<path class="st1" d="M18.8,50c0,0.8-0.3,1.6-0.9,2.2c-0.6,0.6-1.4,0.9-2.2,0.9h0c-1.3,0-2.4-0.8-2.9-1.9c-0.5-1.2-0.2-2.5,0.7-3.4
			c0.9-0.9,2.2-1.2,3.4-0.7C18,47.6,18.8,48.7,18.8,50z"/>
		<path class="st1" d="M18.8,15.6c0,0.8-0.3,1.6-0.9,2.2c-0.6,0.6-1.4,0.9-2.2,0.9h0c-1.3,0-2.4-0.8-2.9-1.9
			c-0.5-1.2-0.2-2.5,0.7-3.4c0.9-0.9,2.2-1.2,3.4-0.7C18,13.2,18.8,14.4,18.8,15.6z"/>
		<path d="M84.4,6.2c5.2,0,9.4,4.2,9.4,9.4c0,5.2-4.2,9.4-9.4,9.4H37.5c-5.2,0-9.4-4.2-9.4-9.4c0-5.2,4.2-9.4,9.4-9.4H84.4z
			 M87.5,15.6c0-1.7-1.4-3.1-3.1-3.1H37.5c-1.7,0-3.1,1.4-3.1,3.1c0,1.7,1.4,3.1,3.1,3.1h46.9C86.1,18.8,87.5,17.4,87.5,15.6z"/>
		<path d="M84.4,40.6c5.2,0,9.4,4.2,9.4,9.4s-4.2,9.4-9.4,9.4H37.5c-5.2,0-9.4-4.2-9.4-9.4s4.2-9.4,9.4-9.4H84.4z M87.5,50
			c0-1.7-1.4-3.1-3.1-3.1H37.5c-1.7,0-3.1,1.4-3.1,3.1s1.4,3.1,3.1,3.1h46.9C86.1,53.1,87.5,51.7,87.5,50z"/>
		<path d="M84.4,75c5.2,0,9.4,4.2,9.4,9.4c0,5.2-4.2,9.4-9.4,9.4H37.5c-5.2,0-9.4-4.2-9.4-9.4c0-5.2,4.2-9.4,9.4-9.4H84.4z
			 M87.5,84.4c0-1.7-1.4-3.1-3.1-3.1H37.5c-1.7,0-3.1,1.4-3.1,3.1c0,1.7,1.4,3.1,3.1,3.1h46.9C86.1,87.5,87.5,86.1,87.5,84.4z"/>
		<path d="M20,7.3c3.1,1.6,5.1,4.8,5,8.3c0,4-2.5,7.5-6.2,8.8v16.7c3.7,1.4,6.2,4.9,6.2,8.8s-2.5,7.5-6.2,8.8v16.7
			c4.3,1.5,6.9,5.9,6.1,10.4c-0.8,4.5-4.7,7.8-9.2,7.8c-4.6,0-8.5-3.3-9.2-7.8c-0.8-4.5,1.8-8.9,6.1-10.4V58.8
			C8.8,57.5,6.3,54,6.3,50s2.5-7.5,6.2-8.8V24.4c-3.3-1.2-5.7-4.1-6.2-7.6s1-6.9,3.9-8.9C13.1,5.9,16.8,5.7,20,7.3z M17.8,17.8
			c0.6-0.6,0.9-1.4,0.9-2.2c0-1.3-0.8-2.4-1.9-2.9c-1.2-0.5-2.5-0.2-3.4,0.7c-0.9,0.9-1.2,2.2-0.7,3.4c0.5,1.2,1.6,1.9,2.9,1.9h0
			C16.5,18.8,17.2,18.4,17.8,17.8z M17.8,52.2c0.6-0.6,0.9-1.4,0.9-2.2c0-1.3-0.8-2.4-1.9-2.9c-1.2-0.5-2.5-0.2-3.4,0.7
			c-0.9,0.9-1.2,2.2-0.7,3.4c0.5,1.2,1.6,1.9,2.9,1.9h0C16.5,53.1,17.2,52.8,17.8,52.2z M17.8,86.6c0.6-0.6,0.9-1.4,0.9-2.2
			c0-1.3-0.8-2.4-1.9-2.9c-1.2-0.5-2.5-0.2-3.4,0.7c-0.9,0.9-1.2,2.2-0.7,3.4c0.5,1.2,1.6,1.9,2.9,1.9h0
			C16.5,87.5,17.2,87.2,17.8,86.6z"/>
	</g>
	<g>
	</g>
</g>
</svg>
