<svg xmlns="http://www.w3.org/2000/svg" xmlns:xlink="http://www.w3.org/1999/xlink" viewBox="0 0 1062.59 1115.22" width="100pt" height="100pt"><defs><style>.a{fill:#fff;}.b{fill:url(#a);}.c{fill:url(#b);}.d{fill:url(#c);}.e{fill:url(#d);}.f{fill:url(#e);}</style><linearGradient id="a" x1="894.43" y1="68.57" x2="1031.56" y2="68.57" gradientUnits="userSpaceOnUse"><stop offset="0" stop-color="#febd2a"/><stop offset="0.07" stop-color="#feb926"/><stop offset="0.67" stop-color="#ff990a"/><stop offset="1" stop-color="#ff8d00"/></linearGradient><linearGradient id="b" x1="729.87" y1="233.12" x2="867.01" y2="233.12" xlink:href="#a"/><linearGradient id="c" x1="565.32" y1="397.68" x2="702.45" y2="397.68" xlink:href="#a"/><linearGradient id="d" x1="236.21" y1="562.23" x2="373.34" y2="562.23" xlink:href="#a"/><linearGradient id="e" x1="400.76" y1="562.23" x2="537.89" y2="562.23" xlink:href="#a"/></defs><path class="a" d="M250.51,1115.22l-21-65H105l-21.49,65H0L123.55,766.55h93.76l122.08,348.67ZM168,855.92h-1.46L126,981.9h82Z"/><path class="a" d="M643.61,1115.22V893.52h-1.46l-63.49,174.82H518.6L454.63,894h-1v221.21H373.08V767H481l68.36,180.68L615.78,767H724.19v348.18Z"/><path class="a" d="M942.46,994.6H870.19v120.62H783.27V767H940.51c77.16,0,122.08,47.37,122.08,111.83C1062.59,936,1027.43,994.6,942.46,994.6ZM926.35,835.41H870.19V927.7h56.16c29.79,0,50.78-15.63,50.78-46.88C977.13,850.54,957.6,835.41,926.35,835.41Z"/><circle class="b" cx="963" cy="68.57" r="68.57"/><circle class="c" cx="798.44" cy="233.12" r="68.57"/><circle class="a" cx="963" cy="233.12" r="68.57"/><circle class="a" cx="304.77" cy="397.68" r="68.57"/><circle class="d" cx="633.88" cy="397.68" r="68.57"/><circle class="a" cx="798.44" cy="397.68" r="68.57"/><circle class="a" cx="963" cy="397.68" r="68.57"/><circle class="a" cx="140.21" cy="562.23" r="68.57"/><circle class="e" cx="304.77" cy="562.23" r="68.57"/><circle class="f" cx="469.33" cy="562.23" r="68.57"/><circle class="a" cx="633.88" cy="562.23" r="68.57"/><circle class="a" cx="798.44" cy="562.23" r="68.57"/><circle class="a" cx="963" cy="562.23" r="68.57"/></svg>