<svg id="Layer_1" data-name="Layer 1" xmlns="http://www.w3.org/2000/svg" viewBox="0 0 1847.51 377.03"><defs><style>.cls-1{fill:#ff7e00;}</style></defs><title>leaderdev</title><polygon class="cls-1" points="43.34 91.8 0 91.8 0 281.44 111.07 281.44 111.07 239.72 43.34 239.72 43.34 91.8"/><path class="cls-1" d="M182.83,142.19c-42.8,0-72.06,31.15-72.06,71.52s28.72,71.52,75,71.52c25.74,0,45.78-9.48,59.06-27.9l-32.51-18.69c-5.42,6-14.9,10.29-26,10.29-14.9,0-27.36-4.88-32.51-19H250a78.72,78.72,0,0,0,1.63-16.25C251.64,172.8,222.38,142.19,182.83,142.19ZM153,199.62c3.79-13.82,14.09-21.4,29.53-21.4,12.19,0,24.38,5.69,28.72,21.4Z"/><path class="cls-1" d="M361.35,158.72c-8.94-10.29-22.21-16.52-40.37-16.52-35.49,0-64.75,31.15-64.75,71.52S285.5,285.23,321,285.23c18.15,0,31.42-6.23,40.37-16.52v12.73H402V146H361.35Zm-32.24,88c-18.69,0-32.24-12.73-32.24-33.05s13.54-33.05,32.24-33.05,32.24,12.73,32.24,33.05S347.81,246.76,329.12,246.76Z"/><path class="cls-1" d="M519,158.72c-8.94-10.29-22.21-16.52-40.37-16.52-35.49,0-64.75,31.15-64.75,71.52s29.26,71.52,64.75,71.52c18.15,0,31.42-6.23,40.37-16.52v12.73H559.6V91.8H519Zm-32.24,88c-18.69,0-32.24-12.73-32.24-33.05s13.54-33.05,32.24-33.05S519,193.39,519,213.71,505.42,246.76,486.72,246.76Z"/><path class="cls-1" d="M643.52,142.19c-42.8,0-72.06,31.15-72.06,71.52s28.72,71.52,75,71.52c25.74,0,45.78-9.48,59.06-27.9L673,238.63c-5.42,6-14.9,10.29-26,10.29-14.9,0-27.36-4.88-32.51-19H710.7a78.72,78.72,0,0,0,1.63-16.25C712.33,172.8,683.07,142.19,643.52,142.19Zm-29.8,57.43c3.79-13.82,14.09-21.4,29.53-21.4,12.19,0,24.38,5.69,28.72,21.4Z"/><path class="cls-1" d="M764.69,170.09V146H724.05V281.44h40.64V220.21c0-26.82,23.84-33.59,40.64-30.88V143.27C788.26,143.27,770.11,151.94,764.69,170.09Z"/><path class="cls-1" d="M895.71,93.59H823.89V283.44h71.82c25,0,47.92-9.9,64.49-27.89,16.2-17.59,25.12-41.39,25.12-67s-8.92-49.44-25.12-67C943.63,103.5,920.73,93.59,895.71,93.59Zm51.84,149.93c-13.15,14.6-31.56,22.64-51.84,22.64H842V110.87h53.75c20.28,0,38.69,8,51.84,22.64,12.87,14.29,20,33.82,20,55S960.43,229.24,947.55,243.53Z"/><path class="cls-1" d="M1070.88,143.77c-20,0-38.11,7.32-51,20.62-12.71,13.06-19.71,31.06-19.71,50.68,0,41.31,30.21,71.29,71.82,71.29,26,0,47.72-11.29,59.59-31l1-1.73-15.2-9-1,1.81c-7.92,14.48-24.43,23.12-44.17,23.12-28.67,0-50.12-18.25-54-45.65h120v-2c0-1,.06-2,.13-3.06s.14-2.19.14-3.31c0-18.85-6.45-36.56-18.15-49.87C1107.86,151.57,1090.31,143.77,1070.88,143.77ZM1018.15,207c1.64-13.13,7.23-24.43,16.26-32.81,9.62-8.92,22.23-13.64,36.47-13.64,26.47,0,46.14,18.57,49.55,46.44Z"/><polygon class="cls-1" points="1204 262.47 1155.93 147.92 1155.41 146.69 1136.72 146.69 1194.19 282.22 1194.7 283.44 1213.55 283.44 1271.26 146.69 1252.84 146.69 1204 262.47"/><path class="cls-1" d="M1659,0H1591.5l-7.58,22.43-7.58,22.44H1659c79.21,0,143.63,64.43,143.63,143.63S1738.2,332.15,1659,332.15h-263.8L1506.32,0H1459L1352.66,317.8l-20,59.23H1659a188.65,188.65,0,0,0,188.51-188.51C1847.51,84.57,1762.95,0,1659,0Z"/><path class="cls-1" d="M1659,314.19h0a125.67,125.67,0,1,0,0-251.35h-88.7l-7.58,22.44-7.58,22.44H1659a80.79,80.79,0,0,1,0,161.59H1482.63l90-269.3h-47.35L1420.1,314.19Z"/></svg>