<?xml version="1.0" encoding="utf-8"?>
<!-- Generator: Adobe Illustrator 24.2.1, SVG Export Plug-In . SVG Version: 6.00 Build 0)  -->
<svg version="1.1" id="Layer_1" xmlns="http://www.w3.org/2000/svg" xmlns:xlink="http://www.w3.org/1999/xlink" x="0px" y="0px"
	 viewBox="0 0 357 70" style="enable-background:new 0 0 357 70;" xml:space="preserve">
<style type="text/css">
	.st0{fill-rule:evenodd;clip-rule:evenodd;fill:#22222A;}
	.st1{fill-rule:evenodd;clip-rule:evenodd;fill:#FF8D00;}
	.st2{enable-background:new    ;}
	.st3{fill:#22222A;}
</style>
<g>
	<polygon class="st0" points="6,20.1 19.5,70 30.6,47.6 23,20.1 	"/>
	<polygon class="st0" points="38.7,41.6 46.6,70 57.3,45 50.6,20.1 	"/>
	<polygon class="st1" points="32.7,20.1 19.4,70 36.9,70 50.6,20.1 	"/>
	<polygon class="st1" points="59.9,20.1 46.6,70 64,70 77.8,20.1 	"/>
	<polygon class="st0" points="0,0 4.8,16.3 22.2,16.3 17,0 	"/>
	<g class="st2">
		<path class="st3" d="M98.9,30.2v-2.8h2.4v2.8H98.9z M98.9,46V32.8h2.4V46H98.9z"/>
		<path class="st3" d="M113.3,46v-8.2c0-2.1-1-3.1-2.6-3.1c-1.8,0-3.3,1.5-3.3,3.8V46H105V32.8h2.3v2h0.1c0.9-1.4,2.2-2.2,4-2.2
			c2.9,0,4.3,2,4.3,4.5V46H113.3z"/>
		<path class="st3" d="M123.5,46.2c-1.7,0-3.5-0.7-3.5-3.1v-8.3h-2.2v-1.9h2.1v-4.3h2.4v4.3h3.6v1.9h-3.6v7.9c0,1.1,0.6,1.5,1.6,1.5
			c0.8,0,1.5-0.2,2.1-0.3v1.9C125.2,46.1,124.1,46.2,123.5,46.2z"/>
		<path class="st3" d="M133.8,46.3c-3.2,0-6-1.7-6-5.4v-2.8c0-3.7,2.5-5.6,5.7-5.6c2.9,0,5.3,1.8,5.3,5.2v2.3h-8.5V41
			c0,2,1.4,3.3,3.6,3.3c1.2,0,2.4-0.8,3.1-1.7l1.8,0.9C137.7,45.4,135.8,46.3,133.8,46.3z M136.5,37.8c0-1.8-1-3.2-2.9-3.2
			c-1.9,0-3.2,1.2-3.2,3.1v0.6h6.1V37.8z"/>
		<path class="st3" d="M148.1,34.8c-0.4,0-1.1,0.1-1.5,0.2c-1.4,0.5-2.3,1.8-2.3,3.8V46h-2.4V32.8h2.3v2.3h0.1
			c1-1.6,2.6-2.5,4.3-2.5c0.4,0,0.9,0.1,1.2,0.1v2.2C149.4,34.9,148.2,34.8,148.1,34.8z"/>
		<path class="st3" d="M159.9,46c0-0.3-0.1-1-0.1-1.4h-0.1c-1.1,1.2-2.2,1.6-3.8,1.6c-2.5,0-4.6-1.3-4.6-3.8c0-3.1,2.8-4.2,5.1-4.2
			h3.3v-1.5c0-1.7-1-2.4-2.7-2.4c-1.4,0-2.7,0.5-2.7,1.8v0.4h-2.2v-0.3c0-2.8,2.5-3.7,5-3.7c2.7,0,5,1,5,4v6.7
			c0,0.8,0.1,2.2,0.2,2.8H159.9z M159.8,40.1h-3.1c-1.5,0-2.8,0.5-2.8,2.2c0,1.4,1.2,2,2.6,2c2.2,0,3.4-1.2,3.4-3V40.1z"/>
		<path class="st3" d="M170.9,46.3c-3.3,0-5.6-1.9-5.6-5.3v-2.9c0-3.5,2.4-5.6,5.6-5.6c3.1,0,5.3,1.8,5.3,4.6v0.3h-2.3v-0.3
			c0-1.3-1-2.6-3-2.6c-1.9,0-3.1,1.2-3.1,3.4v3c0,2,1,3.3,3.2,3.3c2,0,2.9-1.2,2.9-2.5v-0.3h2.3v0.3C176.1,44.5,174,46.3,170.9,46.3
			z"/>
		<path class="st3" d="M183.2,46.2c-1.7,0-3.5-0.7-3.5-3.1v-8.3h-2.2v-1.9h2.1v-4.3h2.4v4.3h3.6v1.9H182v7.9c0,1.1,0.6,1.5,1.6,1.5
			c0.8,0,1.5-0.2,2.1-0.3v1.9C184.9,46.1,183.7,46.2,183.2,46.2z"/>
		<path class="st3" d="M188.1,30.2v-2.8h2.4v2.8H188.1z M188.1,46V32.8h2.4V46H188.1z"/>
		<path class="st3" d="M199.9,46h-2.4l-4.6-13.2h2.5l3.4,10.2h0.1l3.4-10.2h2.4L199.9,46z"/>
		<path class="st3" d="M212.3,46.3c-3.2,0-6-1.7-6-5.4v-2.8c0-3.7,2.5-5.6,5.7-5.6c2.9,0,5.3,1.8,5.3,5.2v2.3h-8.5V41
			c0,2,1.4,3.3,3.6,3.3c1.2,0,2.4-0.8,3.1-1.7l1.8,0.9C216.1,45.4,214.3,46.3,212.3,46.3z M214.9,37.8c0-1.8-1-3.2-2.9-3.2
			c-1.9,0-3.2,1.2-3.2,3.1v0.6h6.1V37.8z"/>
	</g>
	<g class="st2">
		<path class="st3" d="M235.8,46h-4l-2.4-8.7h-0.1L227,46h-4l-4.3-13.7h4.4l2.1,8.2h0.1l2.3-8.2h4l2.2,8.2h0.1l2.1-8.2h4.1L235.8,46
			z"/>
		<path class="st3" d="M247.7,46.3c-3.3,0-6.6-1.5-6.6-5.5v-2.9c0-4,3.3-5.9,6.5-5.9c3.3,0,6.6,1.8,6.6,5.7v2.8
			C254.2,44.6,250.8,46.3,247.7,46.3z M249.9,37.5c0-1.3-0.9-2.2-2.2-2.2c-1.2,0-2.2,0.8-2.2,2.3v3.4c0,1.3,0.9,2.1,2.2,2.1
			c1.2,0,2.2-0.7,2.2-2.2V37.5z"/>
		<path class="st3" d="M263.9,35.8c-1.6,0-3.1,0.9-3.1,3.1V46h-4.3V32.3h4.2v2.3h0.1c0.5-0.9,1.6-1.8,2.8-2.2
			c0.5-0.2,1.2-0.2,1.6-0.2c0.3,0,0.8,0,1.1,0.1v3.7C265.8,35.9,264.1,35.8,263.9,35.8z"/>
		<path class="st3" d="M276.8,46l-3-5.7l-1.5,1.7v4H268V27.5h4.3v10l4.2-5.1h4.9l-4.5,5.1l4.8,8.6H276.8z"/>
		<path class="st3" d="M288.9,46.3c-2.6,0-4.9-0.5-6.5-2.5l2.5-2.2c0.8,1,2.3,1.7,3.8,1.7c1,0,2.1-0.3,2.1-1.2c0-0.8-0.7-1-1.8-1.2
			c-0.1-0.1-1-0.2-1.1-0.2c-0.3-0.1-2-0.5-2.2-0.7c-1.7-0.6-2.7-1.6-2.7-3.4c0-2.9,2.4-4.7,5.8-4.7c2.7,0,4.5,0.6,5.9,2.2l-2.7,2.1
			c-0.8-0.9-1.9-1.3-3-1.3c-1.1,0-1.9,0.3-1.9,1.1c0,0.6,0.6,0.8,1.5,0.9c0.2,0.1,1.6,0.3,1.8,0.3c0.3,0.1,1.6,0.4,1.8,0.5
			c1.9,0.7,3,2,3,3.7C295.2,44.9,291.8,46.3,288.9,46.3z"/>
		<path class="st3" d="M306,46v-8c0-1.4-0.5-2.6-2.1-2.6c-1.3,0-2.2,0.9-2.2,2.8V46h-4.3V27.5h4.3v6.7h0.1c1-1.5,2.4-2.1,4.1-2.1
			c2.4,0,4.5,1.5,4.5,4.5V46H306z"/>
		<path class="st3" d="M319.1,46.3c-3.3,0-6.6-1.5-6.6-5.5v-2.9c0-4,3.3-5.9,6.5-5.9c3.3,0,6.6,1.8,6.6,5.7v2.8
			C325.6,44.6,322.1,46.3,319.1,46.3z M321.2,37.5c0-1.3-0.9-2.2-2.2-2.2c-1.2,0-2.2,0.8-2.2,2.3v3.4c0,1.3,0.9,2.1,2.2,2.1
			c1.2,0,2.2-0.7,2.2-2.2V37.5z"/>
		<path class="st3" d="M335.7,46.3c-1.3,0-2.6-0.7-3.3-1.6h-0.1v6H328V32.3h4.2V34h0.1c1-1.4,2.5-2,3.8-2c3.1,0,5.1,1.9,5.1,5.1v4.1
			C341.1,44.4,338.7,46.3,335.7,46.3z M336.8,37.6c0-1.4-1-2.2-2.2-2.2c-1.1,0-2.3,0.6-2.3,2.5V41c0,1.5,1.2,2.2,2.3,2.2
			c1.1,0,2.2-0.6,2.2-2.2V37.6z"/>
		<path class="st3" d="M349.1,46.3c-2.6,0-4.9-0.5-6.5-2.5l2.5-2.2c0.8,1,2.3,1.7,3.8,1.7c1,0,2.1-0.3,2.1-1.2c0-0.8-0.7-1-1.8-1.2
			c-0.1-0.1-1-0.2-1.1-0.2c-0.3-0.1-2-0.5-2.2-0.7c-1.7-0.6-2.7-1.6-2.7-3.4c0-2.9,2.4-4.7,5.8-4.7c2.7,0,4.5,0.6,5.9,2.2l-2.7,2.1
			c-0.8-0.9-1.9-1.3-3-1.3c-1.1,0-1.9,0.3-1.9,1.1c0,0.6,0.6,0.8,1.5,0.9c0.2,0.1,1.6,0.3,1.8,0.3c0.3,0.1,1.6,0.4,1.8,0.5
			c1.9,0.7,3,2,3,3.7C355.4,44.9,352,46.3,349.1,46.3z"/>
	</g>
</g>
</svg>
