<svg fill="#FFFFFF" width="100pt" height="100pt" version="1.1" viewBox="0 0 100 100" xmlns="http://www.w3.org/2000/svg">
 <path d="m70.789 31.465c-0.45703-0.66406-1.3242-0.91016-2.0547-0.58203-0.73438 0.32813-1.1328 1.1367-0.9375 1.918 0.84375 3.4258 0.65234 7.3594 0.13281 10.797-1.4648-3.8047-4.0156-7.2109-6.7852-10.91l-1.2266-1.6445c-4.6875-6.3242-0.87109-20.461-0.83203-20.602 0.17578-0.64453-0.046876-1.3281-0.56641-1.7461-0.52734-0.41797-1.2422-0.48047-1.8281-0.16797-0.89844 0.48047-20.785 11.387-22.527 32.016-1.0273-1.5508-1.9414-3.918-1.6914-7.2891 0.054688-0.72266-0.36328-1.3984-1.0352-1.668-0.67578-0.27344-1.4453-0.078126-1.9062 0.48047-0.57422 0.69141-14.078 17.188-11.383 35.215 1.4258 9.543 7.1406 17.652 16.988 24.109 0.65234 0.42969 1.5195 0.34766 2.082-0.19922 0.55859-0.54688 0.66406-1.4102 0.25-2.0742-6.1953-9.9453-1.5078-19.086 1.6094-23.43 0.59766 1.7734 1.7305 3.8516 3.8594 5.5273 0.52734 0.41406 1.2461 0.47656 1.8281 0.15234 0.58594-0.32031 0.92578-0.95703 0.85938-1.6211-0.011719-0.13281-1.0508-12.309 8.293-18.176 0.21484 4.168 1.1719 12.004 5.2344 16.629 7.2422 8.2539 4.6016 15.883 1.1094 20.832-0.45703 0.64453-0.39453 1.5234 0.14453 2.1016 0.32422 0.34766 0.76953 0.52734 1.2148 0.52734 0.30078 0 0.60156-0.082031 0.87109-0.24609 0.71094-0.43359 17.383-10.828 19.531-27.016 1.8203-13.668-10.699-32.152-11.234-32.934zm7.9336 32.5c-1.1875 8.9414-7.6055 16.129-12.434 20.375 1.5352-5.0391 1.3398-11.535-4.6289-18.336-4.7383-5.3945-4.4609-17-4.457-17.117 0.015625-0.57031-0.26172-1.1133-0.73438-1.4297-0.47656-0.32031-1.0781-0.37109-1.6016-0.14453-9.207 4.043-11.738 12.566-12.391 17.957-0.74609-1.7539-0.73828-3.2656-0.73437-3.3594 0.015624-0.67969-0.38281-1.3047-1.0078-1.5742-0.625-0.26953-1.3555-0.12891-1.8359 0.35156-0.125 0.125-10.691 10.914-6.9727 24.113-5.9336-5.1602-9.4453-11.191-10.469-17.996-1.7695-11.793 4.3281-23.262 8.0273-28.934 1.25 5.5625 5.2227 7.8789 5.4336 7.9961 0.52344 0.29687 1.1641 0.28906 1.6797-0.023438 0.51562-0.30859 0.82031-0.875 0.80469-1.4766-0.46484-15.965 11.621-26.551 17.609-30.801-0.90625 5.1875-1.6992 14.156 2.2344 19.461l1.2383 1.6562c4.6055 6.1484 8.2422 11.004 7.2188 18.055-0.125 0.84375 0.41406 1.6484 1.2422 1.8555 0.83984 0.21094 1.6797-0.24609 1.9727-1.043 0.13672-0.37109 2.5-6.9609 2.7734-14.129 3.4883 6.3984 8.082 16.613 7.0312 24.543z"/>
</svg>
