<svg fill="#FFFFFF" width="100pt" height="100pt" version="1.1" viewBox="0 0 100 100" xmlns="http://www.w3.org/2000/svg">
 <g>
  <path d="m26.715 78.215c-0.42578 0-0.85547-0.14062-1.207-0.42578l-8.1445-6.5586c-0.58203-0.46875-0.83984-1.2266-0.66406-1.9531 0.17578-0.72266 0.75391-1.2812 1.4844-1.4297 0.57812-0.11719 1.0625-0.28906 1.4375-0.50781 0.25-0.14844 0.34375-0.40234 0.375-0.53906 0.058594-0.25391 0.019531-0.51562-0.11328-0.73828-0.46094-0.73438-0.91016-1.4844-1.3047-2.168-1.7539-3.0078-2.7773-6.2852-2.9609-9.4688-0.25-4.3164 0.92578-6.7812 1.0586-7.0469 0.47266-1.1602 1.4141-2.3359 2.7383-3.3594 1.3672-1.0625 2.9258-1.8008 4.6211-2.1836 3.3359-0.77344 6.8242-0.089844 9.5664 1.8594 1.5391 1.1055 2.6094 2.3906 3.1953 3.8203 0.070313 0.12891 1.2422 2.5938 0.99609 6.9102-0.1875 3.2227-1.2109 6.5-2.9648 9.4805-0.38281 0.66016-0.82422 1.4023-1.2852 2.1602-0.19531 0.32812-0.19141 0.75 0.015625 1.0352 0.089844 0.12891 0.14844 0.1875 0.22656 0.23047 0.38672 0.22656 0.86719 0.39844 1.4453 0.51562 0.73047 0.14844 1.3086 0.70703 1.4844 1.4297 0.17578 0.72266-0.082032 1.4844-0.66016 1.9531l-8.1289 6.5586c-0.35547 0.28516-0.78125 0.42578-1.2109 0.42578zm-4.5-8.0156l4.5 3.625 4.4883-3.6211c-0.30469-0.26172-0.57812-0.56641-0.80078-0.89844-1.0781-1.4844-1.1523-3.5586-0.15234-5.2188 0.44531-0.73828 0.875-1.4609 1.2539-2.1133 1.4531-2.4688 2.2969-5.1484 2.4453-7.7656 0.19141-3.2773-0.65234-5.0938-0.66016-5.1133-0.35937-0.87109-0.99219-1.5938-1.9258-2.2656-1.8398-1.3086-4.1992-1.7656-6.4688-1.2383-1.1484 0.26172-2.1992 0.75781-3.125 1.4766-0.78906 0.60938-1.3242 1.2539-1.5977 1.918-0.058594 0.13281-0.90234 1.9492-0.71484 5.2266 0.14844 2.5859 0.99609 5.2695 2.4453 7.7617 0.375 0.64844 0.80078 1.3594 1.2578 2.0898 1.2461 2.0742 0.78906 4.6602-0.94531 6.1367z"/>
  <path d="m47.664 85.211h-41.895c-1.0625 0-1.9219-0.85938-1.9219-1.9219 0-7.5508 3.4062-10.402 4.4492-11.102 2.7383-2.5273 9.0859-4.1406 9.8164-4.3164 0.57812-0.14453 1.1992-0.007813 1.6641 0.36719l6.9375 5.5859 6.9219-5.5859c0.46875-0.375 1.0859-0.50781 1.6641-0.37109 0.73047 0.17969 7.0898 1.793 9.8203 4.3203 1.0508 0.69922 4.4648 3.5586 4.4648 11.098 0 1.0664-0.85938 1.9258-1.9219 1.9258zm-39.875-3.8477h37.855c-0.47656-4.5664-2.582-5.9297-2.6836-5.9922-0.125-0.078125-0.28516-0.19531-0.39063-0.30078-1.25-1.25-4.8008-2.5391-7.2734-3.2266l-7.3711 5.9492c-0.70312 0.56641-1.7109 0.57031-2.4141 0l-7.3867-5.9492c-2.4727 0.69141-6.0273 1.9844-7.2812 3.2344-0.125 0.125-0.26953 0.23047-0.42188 0.31641-0.070313 0.039063-2.1602 1.3984-2.6328 5.9688z"/>
  <path d="m87.203 70.156h-55.203c-0.61719 0-1.1953-0.29297-1.5586-0.79297-1.1211-1.5469-1.1953-3.6172-0.19531-5.2773 0.44922-0.73828 0.87891-1.4648 1.2578-2.1133 1.4531-2.4688 2.2969-5.1484 2.4453-7.7656 0.19141-3.2773-0.65234-5.0938-0.66016-5.1133-0.35937-0.87109-0.99219-1.5938-1.9258-2.2656-1.8398-1.3086-4.1992-1.7656-6.4688-1.2383-0.57422 0.125-1.1719-0.003906-1.6289-0.37109-0.45703-0.36328-0.72656-0.91797-0.72656-1.5039l0.003907-19.992c0-4.9258 4.0156-8.9336 8.9531-8.9336h55.707c4.9336 0 8.9492 4.0078 8.9492 8.9336v37.48c0 4.9375-4.0156 8.9531-8.9492 8.9531zm-53.766-3.8438h53.762c2.8164 0 5.1094-2.293 5.1094-5.1055v-37.484c0-2.8047-2.2891-5.0859-5.1055-5.0859h-55.707c-2.8164 0-5.1055 2.2812-5.1055 5.0859v17.809c2.5664-0.078125 5.1133 0.67188 7.2148 2.1641 1.5391 1.1055 2.6094 2.3906 3.1953 3.8203 0.070313 0.12891 1.2422 2.5938 0.99609 6.9102-0.1875 3.2227-1.2109 6.5-2.9648 9.4805-0.38281 0.66016-0.82422 1.4023-1.2852 2.1641-0.050781 0.078126-0.085937 0.16016-0.10938 0.24219z"/>
  <path d="m86.09 57.746h-45.359c-1.0625 0-1.9219-0.85938-1.9219-1.9219s0.85938-1.9219 1.9219-1.9219h45.359c1.0625 0 1.9219 0.85938 1.9219 1.9219 0.003906 1.0625-0.85938 1.9219-1.9219 1.9219z"/>
  <path d="m69.082 57.746c-1.0625 0-1.9219-0.85938-1.9219-1.9219v-16.848c0-1.0625 0.85938-1.9219 1.9219-1.9219s1.9219 0.85937 1.9219 1.9219v16.848c0 1.0625-0.85938 1.9219-1.9219 1.9219z"/>
  <path d="m57.25 57.746c-1.0625 0-1.9219-0.85938-1.9219-1.9219l-0.003906-24.738c0-1.0625 0.85938-1.9219 1.9219-1.9219s1.9219 0.85938 1.9219 1.9219l0.003906 24.738c0 1.0625-0.85938 1.9219-1.9219 1.9219z"/>
  <path d="m80.914 57.746c-1.0625 0-1.9219-0.85938-1.9219-1.9219v-26.711c0-1.0625 0.85937-1.9219 1.9219-1.9219s1.9219 0.85938 1.9219 1.9219v26.711c0 1.0625-0.85938 1.9219-1.9219 1.9219z"/>
  <path d="m45.414 57.746c-1.0625 0-1.9219-0.85938-1.9219-1.9219v-18.82c0-1.0625 0.85937-1.9219 1.9219-1.9219s1.9219 0.85938 1.9219 1.9219v18.82c0.003906 1.0625-0.85938 1.9219-1.9219 1.9219z"/>
 </g>
</svg>
