<svg fill="#FFFFFF" width="100pt" height="100pt" version="1.1" viewBox="0 0 100 100" xmlns="http://www.w3.org/2000/svg">
    <g>
        <path d="m27.566 82.617c5 0 9.0664-4.0664 9.0664-9.0664 0-4.4336-3.1992-8.1328-7.3984-8.918v-38.066c0-0.91797-0.75-1.668-1.668-1.668-0.91797 0-1.668 0.75-1.668 1.668v38.066c-4.1992 0.78516-7.3984 4.4844-7.3984 8.918-0.015625 5 4.0664 9.0664 9.0664 9.0664zm0-14.816c3.168 0 5.7344 2.5664 5.7344 5.7344 0 3.168-2.5664 5.7344-5.7344 5.7344-3.168 0-5.7344-2.5664-5.7344-5.7344 0-3.168 2.5664-5.7344 5.7344-5.7344z" />
        <path d="m27.566 91.668c10 0 18.133-8.1328 18.133-18.133 0-6.082-3.1172-11.801-8.1836-15.133v-40.117c-0.015625-5.4844-4.4648-9.9531-9.9492-9.9531s-9.9492 4.4648-9.9492 9.9492v40.117c-5.0664 3.332-8.1836 9.0508-8.1836 15.133 0 10.004 8.1328 18.137 18.133 18.137zm-7.4492-30.902c0.51562-0.30078 0.83203-0.85156 0.83203-1.4336v-41.047c0-3.6484 2.9648-6.6172 6.6172-6.6172 3.6484 0 6.6172 2.9648 6.6172 6.6172v41.047c0 0.60156 0.31641 1.1328 0.83203 1.4336 4.5352 2.6484 7.3516 7.5352 7.3516 12.766 0 8.1484-6.6328 14.801-14.801 14.801-8.168 0-14.801-6.6328-14.801-14.801 0-5.2148 2.8164-10.113 7.3516-12.766z" />
        <path d="m44.016 20.266h7.082c0.91797 0 1.668-0.75 1.668-1.668 0-0.91797-0.75-1.668-1.668-1.668h-7.082c-0.91797 0-1.668 0.75-1.668 1.668 0.003906 0.91797 0.75391 1.668 1.668 1.668z" />
        <path d="m44.016 28.234h4.6484c0.91797 0 1.668-0.75 1.668-1.668 0-0.91797-0.75-1.668-1.668-1.668h-4.6484c-0.91797 0-1.668 0.75-1.668 1.668 0.003906 0.91797 0.75391 1.668 1.668 1.668z" />
        <path d="m44.016 36.184h7.082c0.91797 0 1.668-0.75 1.668-1.668s-0.75-1.668-1.668-1.668h-7.082c-0.91797 0-1.668 0.75-1.668 1.668 0.003906 0.91797 0.75391 1.668 1.668 1.668z" />
        <path d="m44.016 44.133h4.6484c0.91797 0 1.668-0.75 1.668-1.668 0-0.91797-0.75-1.668-1.668-1.668h-4.6484c-0.91797 0-1.668 0.75-1.668 1.668 0.003906 0.91797 0.75391 1.668 1.668 1.668z" />
        <path d="m44.016 52.082h7.082c0.91797 0 1.668-0.75 1.668-1.668 0-0.91797-0.75-1.668-1.668-1.668h-7.082c-0.91797 0-1.668 0.75-1.668 1.668 0.003906 0.91797 0.75391 1.668 1.668 1.668z" />
        <path d="m51.617 65.684c0.33203 0.33203 0.75 0.48438 1.1836 0.48438 0.43359 0 0.85156-0.16797 1.1836-0.48438l13.133-13.133 6.2148 6.2344c0.64844 0.64844 1.6992 0.64844 2.3516 0l11.535-11.535v2.6172c0 0.91797 0.75 1.668 1.668 1.668s1.668-0.75 1.668-1.668v-6.6328c0-0.21484-0.050782-0.43359-0.13281-0.63281-0.082031-0.19922-0.19922-0.38281-0.35156-0.53516-0.015624-0.015625-0.035156-0.015625-0.050781-0.035156-0.14844-0.13281-0.31641-0.25-0.5-0.33203-0.19922-0.082031-0.41797-0.13281-0.64844-0.13281h-6.6328c-0.91797 0-1.668 0.75-1.668 1.668s0.75 1.668 1.668 1.668h2.6172l-10.367 10.367-6.2344-6.2344c-0.64844-0.64844-1.6992-0.64844-2.3516 0l-14.301 14.301c-0.63672 0.62891-0.63672 1.6992 0.015626 2.3477z" />
    </g>
</svg>
