<?xml version="1.0" encoding="utf-8"?>
<!-- Generator: Adobe Illustrator 26.2.1, SVG Export Plug-In . SVG Version: 6.00 Build 0)  -->
<svg version="1.1" id="Layer_1" xmlns="http://www.w3.org/2000/svg" xmlns:xlink="http://www.w3.org/1999/xlink" x="0px" y="0px"
	 viewBox="0 0 100 100" style="enable-background:new 0 0 100 100;" xml:space="preserve">
<style type="text/css">
	.st0{fill:#DBDBDB;}
	.st1{fill:#A6D9E3;}
</style>
<circle class="st0" cx="50" cy="50" r="45"/>
<g id="XMLID_00000127028811830911164470000001912124503079634106_">
	<g>
		<path class="st1" d="M37.5,89.7l-12.3-4.8c1.3-0.7,2.7-1.7,4.2-3.3L37.5,89.7z"/>
		<polygon class="st1" points="72.1,18.4 72.1,81.6 65.8,81.6 65.8,24.7 27.9,24.7 27.9,18.4 		"/>
		<polygon class="st1" points="83.2,7.3 83.2,70.5 76.9,70.5 76.9,13.7 38.9,13.7 38.9,7.3 		"/>
		<path d="M87.9,2.6l0,72.7H76.9v11.1H65.8v11.1H45.3L12.1,84.8v-60h11.1V13.7h11.1V2.6H87.9z M83.2,70.5V7.3H38.9v6.3h37.9v56.9
			H83.2z M72.1,81.6V18.4H27.9v6.3h37.9v56.9H72.1z M61.1,92.7V29.5H16.8v52.1c4.7,0,6.3,0,12.6-6.3l17.4,17.4H61.1z M25.2,84.9
			l12.3,4.8l-8-8C27.9,83.1,26.5,84.2,25.2,84.9z"/>
	</g>
	<g>
	</g>
</g>
</svg>
