<?xml version="1.0" encoding="utf-8"?>
<!-- Generator: Adobe Illustrator 26.2.1, SVG Export Plug-In . SVG Version: 6.00 Build 0)  -->
<svg version="1.1" id="Layer_1" xmlns="http://www.w3.org/2000/svg" xmlns:xlink="http://www.w3.org/1999/xlink" x="0px" y="0px"
	 viewBox="0 0 100 100" style="enable-background:new 0 0 100 100;" xml:space="preserve">
<style type="text/css">
	.st0{fill:#DBDBDB;}
	.st1{fill:#A6D9E3;}
</style>
<circle class="st0" cx="50" cy="50" r="45"/>
<g id="XMLID_00000170245820447754980150000009444066416999238284_">
	<g>
		<rect x="72" y="16" class="st1" width="12" height="12"/>
		<path class="st1" d="M55.5,19.7c0.9,2.2,0.4,4.8-1.3,6.5c-1.7,1.7-4.3,2.2-6.5,1.3C45.5,26.6,44,24.4,44,22c0-3.3,2.7-6,6-6
			C52.4,16,54.6,17.5,55.5,19.7z"/>
		<polygon class="st1" points="22,18.5 26.8,28 17.2,28 		"/>
		<path d="M88,14v16c0,0.5-0.2,1-0.6,1.4C87,31.8,86.5,32,86,32H70c-0.5,0-1-0.2-1.4-0.6C68.2,31,68,30.5,68,30V14c0-1.1,0.9-2,2-2
			h16c0.5,0,1,0.2,1.4,0.6C87.8,13,88,13.5,88,14z M84,28V16H72v12H84z"/>
		<path d="M76,64.6v8.2c0,3.7-0.6,7.3-1.8,10.8l-1,3.1c-0.3,0.8-1,1.4-1.9,1.4c0,0,0,0,0,0h-0.6c-0.5-0.2-0.9-0.5-1.2-1
			c-0.2-0.5-0.3-1-0.1-1.5l1-3.1c1-3.1,1.5-6.2,1.5-9.5c0,0,0-0.1,0-0.1v-8.2c0-2.9-2-5.3-4.8-5.9L53.6,56c-0.9-0.2-1.6-1-1.6-2V42
			c0-1.1-0.9-2-2-2s-2,0.9-2,2v28c0,1.1-0.9,2-2,2s-2-0.9-2-2v-7.2l-2.2,2.2c-1.1,1.1-1.8,2.7-1.8,4.2v6.2c0,1.2,0.3,2.4,1,3.4l4,6
			c0.2,0.3,0.3,0.7,0.3,1.1c0,0.7-0.3,1.3-0.9,1.7c-0.3,0.2-0.7,0.3-1.1,0.3c-0.7,0-1.3-0.3-1.7-0.9l-4-6c-1.1-1.7-1.7-3.6-1.7-5.6
			v-6.2c0-2.7,1-5.2,2.9-7.1l5.1-5.1V42c0-3.3,2.7-6,6-6s6,2.7,6,6v10.4l12,2.4c2.3,0.5,4.3,1.7,5.7,3.5C75.2,60,76,62.2,76,64.6z"
			/>
		<path d="M57.1,14.9c2.9,2.9,3.7,7.2,2.2,10.9C57.7,29.6,54,32,50,32c-2.7,0-5.2-1-7.1-2.9C41.1,27.2,40,24.6,40,22
			c0-4,2.4-7.7,6.2-9.2C49.9,11.2,54.2,12.1,57.1,14.9z M54.2,26.2c1.7-1.7,2.2-4.3,1.3-6.5C54.6,17.5,52.4,16,50,16
			c-3.3,0-6,2.7-6,6c0,2.4,1.5,4.6,3.7,5.5C50,28.5,52.5,28,54.2,26.2z"/>
		<path d="M31.7,29.1c0.3,0.6,0.3,1.3,0,1.9c-0.4,0.6-1,0.9-1.7,1H14c-0.7,0-1.2-0.4-1.6-1c-0.3-0.6-0.3-1.3,0-1.9l8-16
			c0.4-0.6,1.1-1,1.8-1c0.7,0,1.4,0.4,1.8,1L31.7,29.1z M26.8,28L22,18.5L17.2,28H26.8z"/>
	</g>
	<g>
	</g>
</g>
</svg>
