<?xml version="1.0" encoding="utf-8"?>
<!-- Generator: Adobe Illustrator 26.2.1, SVG Export Plug-In . SVG Version: 6.00 Build 0)  -->
<svg version="1.1" id="Layer_1" xmlns="http://www.w3.org/2000/svg" xmlns:xlink="http://www.w3.org/1999/xlink" x="0px" y="0px"
	 viewBox="0 0 100 100" style="enable-background:new 0 0 100 100;" xml:space="preserve">
<style type="text/css">
	.st0{fill:#DBDBDB;}
	.st1{fill:#A6D9E3;}
</style>
<circle class="st0" cx="50" cy="50" r="45"/>
<g>
	<g id="XMLID_00000004542368630152900430000008681356594787756945_">
		<g>
			<polygon class="st1" points="94.1,50 92.2,53.2 90.3,50 			"/>
			<polygon class="st1" points="7.8,49.9 9.7,53.1 5.9,53.1 			"/>
			<path class="st1" d="M51.3,5.2c0,1.3,0.9,2.4,2.1,2.8c0.6,0.2,1.2,0.4,1.8,0.7c1.1,0.6,2.6,0.4,3.5-0.5L59,7.9l1.8,1.8l-0.4,0.4
				c-0.9,0.9-1.1,2.4-0.5,3.5c0.3,0.6,0.5,1.1,0.7,1.8c0.4,1.3,1.5,2.1,2.8,2.1h0.5V20h-0.5c-1.3,0-2.5,0.9-2.8,2.1
				c-0.2,0.6-0.4,1.2-0.7,1.8c-0.6,1.1-0.4,2.6,0.5,3.5l0.4,0.4L59,29.6l-0.4-0.4c-0.9-0.9-2.4-1.1-3.5-0.5
				c-0.6,0.3-1.2,0.5-1.8,0.7c-1.2,0.4-2.1,1.5-2.1,2.8v0.5h-2.6v-0.5c0-1.3-0.9-2.5-2.1-2.8c-0.6-0.2-1.2-0.4-1.8-0.7
				c-1.1-0.6-2.6-0.4-3.5,0.5L41,29.6l-1.8-1.8l0.4-0.4c0.9-0.9,1.1-2.4,0.5-3.5c-0.3-0.6-0.5-1.1-0.7-1.8c-0.4-1.2-1.5-2.1-2.8-2.1
				h-0.5v-2.6h0.5c1.3,0,2.5-0.9,2.8-2.1c0.2-0.6,0.4-1.2,0.7-1.8c0.6-1.2,0.4-2.6-0.5-3.5l-0.4-0.4L41,7.9l0.4,0.4
				c0.9,0.9,2.4,1.1,3.5,0.5c0.6-0.3,1.2-0.5,1.8-0.7c1.2-0.4,2.1-1.5,2.1-2.8V4.7h2.6V5.2z M53.3,26.7c3.2-1.3,5.3-4.5,5.3-7.9
				c0-4.7-3.8-8.6-8.6-8.6c-3.5,0-6.6,2.1-7.9,5.3c-1.3,3.2-0.6,6.9,1.9,9.4C46.4,27.3,50.1,28,53.3,26.7z"/>
			<path class="st1" d="M45.4,93.8h9.3c-0.9,1-2.1,1.6-3.5,1.6h-2.3C47.5,95.3,46.2,94.7,45.4,93.8z"/>
			<rect x="44.1" y="89.1" class="st1" width="11.7" height="1.6"/>
			<path d="M98.2,47.7c0.3,0.5,0.3,1.1,0,1.6l-4.7,7.8c-0.3,0.5-0.8,0.8-1.3,0.8c-0.6,0-1.1-0.3-1.3-0.8l-4.7-7.8
				c-0.3-0.5-0.3-1.1,0-1.6c0.3-0.5,0.8-0.8,1.4-0.8h2.9c-1.2-11.2-8.7-21.1-20.3-26.7l1.4-2.8c12.7,6.2,20.9,17.1,22.1,29.5h3.3
				C97.4,46.9,98,47.2,98.2,47.7z M92.2,53.2l1.9-3.2h-3.9L92.2,53.2z"/>
			<path d="M88.7,60.4l2.9,1.1c-4.4,11.7-15.2,20.8-28.9,24.4l-0.8-3C74.7,79.6,84.7,71.1,88.7,60.4z"/>
			<path d="M60.9,55.7c3.6,3.2,5.6,7.8,5.5,12.6c-0.1,4.8-2.2,9.3-5.9,12.4c-1,0.8-1.5,2.1-1.5,3.3v6.6c0,4.3-3.5,7.8-7.8,7.8h-2.3
				c-4.3,0-7.8-3.5-7.8-7.8v-6.6c0-1.2-0.5-2.4-1.4-3.3c-3.3-2.8-5.5-6.7-5.9-11c-0.5-4.3,0.8-8.6,3.5-12c2.7-3.4,6.6-5.6,10.9-6.1
				C52.8,51.1,57.4,52.6,60.9,55.7z M63.3,68.3c0.1-3.9-1.6-7.6-4.5-10.2c-2.8-2.5-6.6-3.7-10.3-3.3c-6.2,0.7-11.1,5.7-11.7,12
				c-0.4,4.4,1.4,8.8,4.8,11.7c1.7,1.4,2.6,3.5,2.6,5.7v1.9h4.3v-5.5l-6.2-5c-1-0.8-1.6-2.1-1.6-3.4v-0.6c0-2.4,2-4.3,4.3-4.3h0.4
				c1.5,0,2.8,0.7,3.6,1.9c0.2,0.3,0.6,0.5,1,0.5s0.8-0.2,1-0.5c0.8-1.2,2.2-1.9,3.6-1.9H55c1.2,0,2.3,0.5,3.1,1.3
				c0.8,0.8,1.3,1.9,1.3,3.1v0.8c0,1.2-0.5,2.2-1.3,3.1l-3.9,3.9L52,77l3.9-3.9c0.2-0.2,0.3-0.5,0.3-0.8v-0.8c0-0.7-0.5-1.2-1.2-1.2
				h-0.4c-0.4,0-0.8,0.2-1,0.5c-0.8,1.2-2.1,1.9-3.6,1.9s-2.8-0.7-3.6-1.9c-0.2-0.3-0.6-0.5-1-0.5H45c-0.7,0-1.2,0.5-1.2,1.2v0.6
				c0,0.4,0.2,0.7,0.5,0.9l6.8,5.4c0.4,0.3,0.6,0.8,0.6,1.2v6.2h4.3v-1.9c0-2.2,1-4.3,2.6-5.7C61.5,75.8,63.2,72.2,63.3,68.3z
				 M55.9,90.6v-1.6H44.1v1.6H55.9z M54.6,93.8h-9.3c0.9,1,2.1,1.6,3.5,1.6h2.3C52.5,95.3,53.8,94.7,54.6,93.8z"/>
			<path d="M58.6,18.8c0,3.5-2.1,6.6-5.3,7.9s-6.9,0.6-9.4-1.9c-2.5-2.5-3.2-6.2-1.9-9.4c1.3-3.2,4.5-5.3,7.9-5.3
				C54.7,10.2,58.6,14,58.6,18.8z M55.5,18.8c0-2.2-1.3-4.2-3.4-5.1c-2-0.8-4.4-0.4-6,1.2c-1.6,1.6-2,3.9-1.2,6c0.8,2,2.8,3.4,5,3.4
				C53,24.2,55.5,21.8,55.5,18.8z"/>
			<path d="M42.1,4.6L43.5,6c0.7-0.3,1.4-0.6,2.1-0.9v-2c0-0.4,0.2-0.8,0.5-1.1c0.3-0.3,0.7-0.5,1.1-0.5h5.7c0.4,0,0.8,0.2,1.1,0.5
				c0.3,0.3,0.5,0.7,0.5,1.1v2c0.7,0.2,1.4,0.5,2.1,0.9h0l1.4-1.4c0.3-0.3,0.7-0.5,1.1-0.5c0.4,0,0.8,0.2,1.1,0.5l4,4
				c0.3,0.3,0.5,0.7,0.5,1.1c0,0.4-0.2,0.8-0.5,1.1v0l-1.4,1.4c0.4,0.7,0.7,1.4,0.9,2.1h2c0.4,0,0.8,0.2,1.1,0.5
				c0.3,0.3,0.5,0.7,0.5,1.1v5.7c0,0.4-0.2,0.8-0.5,1.1c-0.3,0.3-0.7,0.4-1.1,0.4h-2c-0.2,0.7-0.5,1.5-0.9,2.1v0l1.4,1.4
				c0.3,0.3,0.5,0.7,0.5,1.1c0,0.4-0.2,0.8-0.5,1.1l-4,4c-0.3,0.3-0.7,0.5-1.1,0.5c-0.4,0-0.8-0.2-1.1-0.5l-1.4-1.4
				c-0.7,0.4-1.4,0.6-2.1,0.9v2c0,0.4-0.2,0.8-0.5,1.1c-0.3,0.3-0.7,0.5-1.1,0.5h-5.7c-0.4,0-0.8-0.2-1.1-0.5
				c-0.3-0.3-0.5-0.7-0.5-1.1v-2c-0.7-0.2-1.4-0.5-2.1-0.9l-1.4,1.4c-0.6,0.6-1.6,0.6-2.2,0l-4-4c-0.3-0.3-0.5-0.7-0.5-1.1
				c0-0.4,0.2-0.8,0.5-1.1v0l1.4-1.4c-0.4-0.7-0.7-1.4-0.9-2.1h-2c-0.4,0-0.8-0.2-1.1-0.4c-0.3-0.3-0.5-0.7-0.5-1.1v-5.7
				c0-0.4,0.2-0.8,0.5-1.1c0.3-0.3,0.7-0.5,1.1-0.5h2c0.2-0.7,0.5-1.5,0.9-2.1l-1.4-1.4c-0.3-0.3-0.5-0.7-0.5-1.1
				c0-0.4,0.2-0.8,0.5-1.1l4-4c0.3-0.3,0.7-0.5,1.1-0.5S41.8,4.3,42.1,4.6z M64.1,20v-2.6h-0.5c-1.3,0-2.5-0.9-2.8-2.1
				c-0.2-0.6-0.4-1.2-0.7-1.8c-0.6-1.2-0.4-2.6,0.5-3.5l0.4-0.4L59,7.9l-0.4,0.4c-0.9,0.9-2.4,1.1-3.5,0.5c-0.6-0.3-1.2-0.5-1.8-0.7
				c-1.2-0.4-2.1-1.5-2.1-2.8V4.7h-2.6v0.5c0,1.3-0.9,2.4-2.1,2.8c-0.6,0.2-1.2,0.4-1.8,0.7c-1.1,0.6-2.6,0.4-3.5-0.5L41,7.9
				l-1.8,1.8l0.4,0.4c0.9,0.9,1.1,2.3,0.5,3.5c-0.3,0.6-0.5,1.1-0.7,1.8c-0.4,1.3-1.5,2.1-2.8,2.1h-0.5V20h0.5
				c1.3,0,2.5,0.9,2.8,2.1c0.2,0.6,0.4,1.2,0.7,1.8c0.6,1.1,0.4,2.6-0.5,3.5l-0.4,0.4l1.8,1.8l0.4-0.4c0.9-0.9,2.4-1.1,3.5-0.5
				c0.6,0.3,1.2,0.5,1.8,0.7c1.2,0.4,2.1,1.5,2.1,2.8v0.5h2.6v-0.5c0-1.3,0.9-2.5,2.1-2.8c0.6-0.2,1.2-0.4,1.8-0.7
				c1.1-0.6,2.6-0.4,3.5,0.5l0.4,0.4l1.8-1.8l-0.4-0.4c-0.9-0.9-1.1-2.4-0.5-3.5c0.3-0.6,0.5-1.1,0.7-1.8c0.4-1.2,1.5-2.1,2.8-2.1
				H64.1z"/>
			<path d="M37.9,82.8l-0.8,3C21.3,81.7,9.6,70.1,6.9,56.2H3.1h0c-0.6,0-1.1-0.3-1.3-0.8c-0.3-0.5-0.3-1.1,0-1.6l4.7-7.8
				c0.3-0.4,0.8-0.7,1.3-0.7c0.5,0,1,0.3,1.3,0.7l4.7,7.8c0.3,0.5,0.3,1.1,0,1.6c-0.3,0.5-0.8,0.8-1.4,0.8h-2.4
				C12.8,68.7,23.5,79,37.9,82.8z M9.7,53.1l-1.9-3.2l-1.9,3.2H9.7z"/>
			<path d="M29,17.1l1.3,2.8c-10.2,4.8-17.5,13-20,22.7l-3-0.8C10,31.3,18,22.3,29,17.1z"/>
		</g>
		<g>
		</g>
	</g>
</g>
</svg>
