<?xml version="1.0" encoding="utf-8"?>
<!-- Generator: Adobe Illustrator 26.2.1, SVG Export Plug-In . SVG Version: 6.00 Build 0)  -->
<svg version="1.1" id="Layer_1" xmlns="http://www.w3.org/2000/svg" xmlns:xlink="http://www.w3.org/1999/xlink" x="0px" y="0px"
	 viewBox="0 0 100 100" style="enable-background:new 0 0 100 100;" xml:space="preserve">
<style type="text/css">
	.st0{fill:#DBDBDB;}
	.st1{fill:#A6D9E3;}
</style>
<circle class="st0" cx="50" cy="50" r="45"/>
<g>
	<g id="XMLID_00000117678265286999209090000003195982125803591847_">
		<g>
			<path class="st1" d="M71.8,48c0.5,0.7,0.8,1.4,0.9,2c0,0.7-0.3,1.4-0.9,2C68.5,56.3,59.6,64.3,50,64.3s-18.5-8-21.8-12.3
				c-0.5-0.7-0.8-1.4-0.9-2.1c0-0.7,0.3-1.4,0.9-2c3.3-4.2,12.2-12.3,21.9-12.3C59.6,35.7,68.5,43.7,71.8,48z M56.4,56.4
				c3.5-3.5,3.5-9.2,0-12.8s-9.2-3.5-12.8,0s-3.5,9.2,0,12.8C47.1,59.9,52.8,59.9,56.4,56.4z"/>
			<path d="M91.3,47.8c1.2,0,2.2,1,2.2,2.2c0,1.2-1,2.2-2.2,2.2h-8c-1.2,0-2.2-1-2.2-2.2s1-2.2,2.2-2.2H91.3z"/>
			<path d="M78,18.8c0.8,0.9,0.8,2.2,0,3.1l-5.6,5.6c-0.8,0.9-2.2,0.9-3.1,0c-0.8-0.9-0.8-2.2,0-3.1l5.6-5.6
				C75.8,17.9,77.1,17.9,78,18.8z"/>
			<path d="M78,78.2c0.8,0.9,0.8,2.2,0,3.1c-0.8,0.8-2.2,0.8-3.1,0l-5.6-5.6c-0.8-0.8-0.8-2.2,0-3.1c0.9-0.8,2.2-0.8,3.1,0L78,78.2z
				"/>
			<path d="M77.7,50v0.1c0,1.8-0.7,3.5-1.9,5c-2.5,3.2-6.3,6.6-10.1,9C60.4,67.5,55,69.3,50,69.3c-5,0-10.4-1.8-15.7-5.1
				c-3.8-2.4-7.5-5.8-10.1-9c-1.2-1.6-1.9-3.3-1.9-5v-0.1c0-1.7,0.7-3.5,1.9-5c2.5-3.2,6.3-6.6,10.1-9c5.2-3.4,10.6-5.2,15.7-5.2
				c5,0,10.4,1.8,15.6,5.2c3.8,2.4,7.5,5.8,10.1,9C76.9,46.5,77.6,48.2,77.7,50z M72.7,50c0-0.7-0.3-1.4-0.9-2
				C68.5,43.7,59.6,35.7,50,35.7c-9.7,0-18.5,8-21.9,12.3c-0.5,0.7-0.8,1.4-0.9,2c0,0.7,0.3,1.4,0.9,2.1
				c3.3,4.2,12.2,12.3,21.8,12.3s18.5-8,21.8-12.3C72.4,51.4,72.7,50.7,72.7,50z"/>
			<path d="M56.4,43.6c3.5,3.5,3.5,9.2,0,12.8c-3.5,3.5-9.2,3.5-12.8,0c-3.5-3.5-3.5-9.2,0-12.8S52.8,40.1,56.4,43.6z M53.5,53.5
				c1.9-1.9,1.9-5.1,0-7c-1.9-1.9-5.1-1.9-7,0c-1.9,1.9-1.9,5.1,0,7C48.4,55.4,51.6,55.4,53.5,53.5z"/>
			<path d="M52.5,77.1v8c0,1.2-1,2.2-2.2,2.2c-1.2,0-2.2-1-2.2-2.2v-8c0-1.2,1-2.2,2.2-2.2C51.5,74.9,52.5,75.9,52.5,77.1z"/>
			<path d="M52.5,15v8c0,1.2-1,2.2-2.2,2.2c-1.2,0-2.2-1-2.2-2.2v-8c0-1.2,1-2.2,2.2-2.2C51.5,12.8,52.5,13.8,52.5,15z"/>
			<path d="M30.4,24.4c0.8,0.9,0.8,2.2,0,3.1c-0.9,0.9-2.2,0.9-3.1,0l-5.6-5.6c-0.8-0.9-0.8-2.2,0-3.1c0.9-0.9,2.2-0.9,3.1,0
				L30.4,24.4z"/>
			<path d="M30.4,72.5c0.8,0.9,0.8,2.2,0,3.1l-5.6,5.6c-0.9,0.9-2.2,0.9-3.1,0c-0.8-0.8-0.8-2.2,0-3.1l5.6-5.6
				C28.1,71.7,29.5,71.7,30.4,72.5z"/>
			<path d="M16.6,47.8c1.2,0,2.2,1,2.2,2.2c0,1.2-1,2.2-2.2,2.2h-8c-1.2,0-2.2-1-2.2-2.2s1-2.2,2.2-2.2H16.6z"/>
		</g>
		<g>
		</g>
	</g>
</g>
</svg>
