<?xml version="1.0" encoding="utf-8"?>
<!-- Generator: Adobe Illustrator 26.2.1, SVG Export Plug-In . SVG Version: 6.00 Build 0)  -->
<svg version="1.1" id="Layer_1" xmlns="http://www.w3.org/2000/svg" xmlns:xlink="http://www.w3.org/1999/xlink" x="0px" y="0px"
	 viewBox="0 0 100 100" style="enable-background:new 0 0 100 100;" xml:space="preserve">
<style type="text/css">
	.st0{fill:#DBDBDB;}
	.st1{fill:#A6D9E3;}
</style>
<circle class="st0" cx="50" cy="50" r="45"/>
<g>
	<g id="XMLID_00000075862130879003202850000008108329369231150213_">
		<g>
			<path class="st1" d="M43,14.6c16,0,29,13,29,29s-13,29-29,29c-16,0-29-13-29-29S27.1,14.6,43,14.6z M58.5,38l8.5,4.3
				c-0.1-1.2-0.2-2.4-0.5-3.6l-6.7-3.3c0.1-0.5,0.2-1.1,0.2-1.7c0-3.9-3.1-7-7-7c-3.9,0-7,3.1-7,7c0,2.5,1.4,4.8,3.4,6l-1.7,5
				c-0.2,0-0.5,0-0.7,0c-1.8,0-3.5,0.7-4.8,1.9l-5.3-3.7l-0.2-0.1c0.2-0.7,0.3-1.4,0.3-2.1c0-3.9-3.1-7-7-7c-3.9,0-7,3.1-7,7
				c0,1.7,0.6,3.3,1.7,4.5L20,50.2c0.3,1.1,0.7,2.1,1.1,3.2l6-6.4c0.9,0.4,1.9,0.6,2.9,0.6c2.1,0,3.9-0.9,5.2-2.3l5.3,3.7
				c-0.3,0.8-0.5,1.7-0.5,2.6c0,3.9,3.1,7,7,7s7-3.1,7-7c0-2.6-1.4-4.8-3.4-6l1.7-5c0.2,0,0.5,0,0.7,0C55.3,40.5,57.2,39.5,58.5,38z
				"/>
			<path d="M90.9,82.7l-7.8,7.8L63.5,70.8c-5.7,4.3-12.8,6.8-20.4,6.8c-18.8,0-34-15.2-34-34s15.2-34,34-34s34,15.2,34,34
				c0,7.1-2.2,13.8-6,19.2L90.9,82.7z M72.1,43.6c0-16-13-29-29-29c-16,0-29,13-29,29s13,29,29,29C59,72.6,72.1,59.5,72.1,43.6z"/>
			<path d="M67,42.2L58.5,38c-1.3,1.6-3.2,2.6-5.4,2.6c-0.2,0-0.5,0-0.7,0l-1.7,5c2,1.2,3.4,3.5,3.4,6c0,3.9-3.1,7-7,7s-7-3.1-7-7
				c0-0.9,0.2-1.8,0.5-2.6l-5.3-3.7l1.7-2.5l5.3,3.7c1.2-1.2,2.9-1.9,4.8-1.9c0.2,0,0.5,0,0.7,0l1.7-5c-2-1.2-3.4-3.5-3.4-6
				c0-3.9,3.1-7,7-7c3.9,0,7,3.1,7,7c0,0.6-0.1,1.2-0.2,1.7l6.7,3.3C66.8,39.8,66.9,41,67,42.2z"/>
			<path d="M36.9,42.8l-1.7,2.5c-1.3,1.4-3.1,2.3-5.2,2.3c-1,0-2-0.2-2.9-0.6l-6,6.4c-0.4-1-0.8-2.1-1.1-3.2l4.8-5.1
				c-1-1.2-1.7-2.8-1.7-4.5c0-3.9,3.1-7,7-7c3.9,0,7,3.1,7,7c0,0.7-0.1,1.4-0.3,2.1L36.9,42.8z"/>
		</g>
		<g>
		</g>
	</g>
</g>
</svg>
